<?xml version="1.0" standalone="no"?>
<!DOCTYPE svg PUBLIC "-//W3C//DTD SVG 1.1//EN" "http://www.w3.org/Graphics/SVG/1.1/DTD/svg11.dtd" >
<svg>
<metadata>
Created by FontForge 20090914 at Sat Aug 27 09:31:12 2016
 By www-data
SIL Open Font License 1.1
</metadata>
<defs>
<font id="FontAwesome" horiz-adv-x="1536" >
  <font-face 
    font-family="FontAwesome"
    font-weight="400"
    font-stretch="normal"
    units-per-em="1792"
    panose-1="0 0 0 0 0 0 0 0 0 0"
    ascent="1536"
    descent="-256"
    bbox="-1.02049 -256.307 1920 1536.07"
    underline-thickness="90"
    underline-position="-89"
    unicode-range="U+0020-U+F500"
  />
<missing-glyph horiz-adv-x="896" 
d="M224 112h448v1312h-448v-1312zM112 0v1536h672v-1536h-672z" />
    <glyph glyph-name=".notdef" horiz-adv-x="896" 
d="M224 112h448v1312h-448v-1312zM112 0v1536h672v-1536h-672z" />
    <glyph glyph-name="space" unicode=" " horiz-adv-x="448" 
 />
    <glyph glyph-name="uni00A0" unicode="&#xa0;" horiz-adv-x="448" 
 />
    <glyph glyph-name="dieresis" unicode="&#xa8;" horiz-adv-x="1792" 
 />
    <glyph glyph-name="copyright" unicode="&#xa9;" horiz-adv-x="1792" 
 />
    <glyph glyph-name="registered" unicode="&#xae;" horiz-adv-x="1792" 
 />
    <glyph glyph-name="acute" unicode="&#xb4;" horiz-adv-x="1792" 
 />
    <glyph glyph-name="AE" unicode="&#xc6;" horiz-adv-x="1792" 
 />
    <glyph glyph-name="uni2000" unicode="&#x2000;" horiz-adv-x="768" 
 />
    <glyph glyph-name="uni2001" unicode="&#x2001;" 
 />
    <glyph glyph-name="uni2002" unicode="&#x2002;" horiz-adv-x="768" 
 />
    <glyph glyph-name="uni2003" unicode="&#x2003;" 
 />
    <glyph glyph-name="uni2004" unicode="&#x2004;" horiz-adv-x="512" 
 />
    <glyph glyph-name="uni2005" unicode="&#x2005;" horiz-adv-x="384" 
 />
    <glyph glyph-name="uni2006" unicode="&#x2006;" horiz-adv-x="256" 
 />
    <glyph glyph-name="uni2007" unicode="&#x2007;" horiz-adv-x="256" 
 />
    <glyph glyph-name="uni2008" unicode="&#x2008;" horiz-adv-x="192" 
 />
    <glyph glyph-name="uni2009" unicode="&#x2009;" horiz-adv-x="307" 
 />
    <glyph glyph-name="uni200A" unicode="&#x200a;" horiz-adv-x="85" 
 />
    <glyph glyph-name="uni202F" unicode="&#x202f;" horiz-adv-x="307" 
 />
    <glyph glyph-name="uni205F" unicode="&#x205f;" horiz-adv-x="384" 
 />
    <glyph glyph-name="trademark" unicode="&#x2122;" horiz-adv-x="1792" 
 />
    <glyph glyph-name="infinity" unicode="&#x221e;" horiz-adv-x="1792" 
 />
    <glyph glyph-name="notequal" unicode="&#x2260;" horiz-adv-x="1792" 
 />
    <glyph glyph-name="uniE000" unicode="&#xe000;" horiz-adv-x="500" 
d="M0 0z" />
    <glyph glyph-name="glass" unicode="&#xf000;" horiz-adv-x="1792" 
d="M1699 1350c0 -23.333 -14.3311 -49.333 -42.998 -78l-632 -632v-768h320c17.333 0 32.333 -6.33301 45 -19s19 -27.667 19 -45s-6.33301 -32.333 -19 -45s-27.667 -19 -45 -19h-896c-17.333 0 -32.333 6.33301 -45 19s-19 27.667 -19 45s6.33301 32.333 19 45
s27.667 19 45 19h320v768l-632 632c-28.667 28.667 -43 54.667 -43 78c0 15.333 6 27.5 18 36.5s24.667 14.833 38 17.5s27.666 4 42.999 4h1408c15.333 0 29.666 -1.33301 42.999 -4s26 -8.5 38 -17.5s18 -21.167 18 -36.5z" />
    <glyph glyph-name="music" unicode="&#xf001;" 
d="M1536 1312l0.000976562 -1120c0 -33.333 -11.333 -63 -34 -89s-51.334 -46.167 -86.001 -60.5s-69.167 -25 -103.5 -32s-66.5 -10.5 -96.5 -10.5s-62.167 3.5 -96.5 10.5s-68.833 17.667 -103.5 32s-63.334 34.5 -86.001 60.5s-34 55.667 -34 89s11.333 63 34 89
s51.334 46.167 86.001 60.5s69.167 25 103.5 32s66.5 10.5 96.5 10.5c70 0 134 -13 192 -39v537l-768 -237v-709c0 -33.333 -11.333 -63 -34 -89s-51.334 -46.167 -86.001 -60.5s-69.167 -25 -103.5 -32s-66.5 -10.5 -96.5 -10.5s-62.167 3.5 -96.5 10.5
s-68.833 17.667 -103.5 32s-63.334 34.5 -86.001 60.5s-34 55.667 -34 89s11.333 63 34 89s51.334 46.167 86.001 60.5s69.167 25 103.5 32s66.5 10.5 96.5 10.5c70 0 134 -13 192 -39v967c0 20.667 6.33301 39.5 19 56.5s29 28.833 49 35.5l832 256
c8 2.66699 17.333 4 28 4c26.667 0 49.334 -9.33301 68.001 -28s28 -41.334 28 -68.001z" />
    <glyph glyph-name="search" unicode="&#xf002;" horiz-adv-x="1664" 
d="M1152 704c0 123.333 -43.833 228.833 -131.5 316.5s-193.167 131.5 -316.5 131.5s-228.833 -43.833 -316.5 -131.5s-131.5 -193.167 -131.5 -316.5s43.833 -228.833 131.5 -316.5s193.167 -131.5 316.5 -131.5s228.833 43.833 316.5 131.5s131.5 193.167 131.5 316.5z
M1664 -128c0 -34.667 -12.667 -64.667 -38 -90s-55.333 -38 -90 -38c-36 0 -66 12.667 -90 38l-343 342c-119.333 -82.667 -252.333 -124 -399 -124c-95.333 0 -186.5 18.5 -273.5 55.5s-162 87 -225 150s-113 138 -150 225s-55.5 178.167 -55.5 273.5
s18.5 186.5 55.5 273.5s87 162 150 225s138 113 225 150s178.167 55.5 273.5 55.5s186.5 -18.5 273.5 -55.5s162 -87 225 -150s113 -138 150 -225s55.5 -178.167 55.5 -273.5c0 -146.667 -41.333 -279.667 -124 -399l343 -343c24.667 -24.667 37 -54.667 37 -90z" />
    <glyph glyph-name="envelope" unicode="&#xf003;" horiz-adv-x="1792" 
d="M1664 32l-0.00195312 768c-21.333 -24 -44.333 -46 -69 -66c-178.667 -137.333 -320.667 -250 -426 -338c-34 -28.667 -61.667 -51 -83 -67s-50.166 -32.167 -86.499 -48.5s-70.5 -24.5 -102.5 -24.5h-1h-1c-32 0 -66.167 8.16699 -102.5 24.5s-65.166 32.5 -86.499 48.5
s-49 38.333 -83 67c-105.333 88 -247.333 200.667 -426 338c-24.667 20 -47.667 42 -69 66v-768c0 -8.66699 3.16699 -16.167 9.5 -22.5s13.833 -9.5 22.5 -9.5h1472c8.66699 0 16.167 3.16699 22.5 9.5s9.5 13.833 9.5 22.5zM1664 1083l0.0078125 11v13.5
c0 3 -0.166992 7.33301 -0.5 13s-1.33301 9.83398 -3 12.501l-5.5 9c-2 3.33301 -5 5.83301 -9 7.5s-8.66699 2.5 -14 2.5h-1472c-8.66699 0 -16.167 -3.16699 -22.5 -9.5s-9.5 -13.833 -9.5 -22.5c0 -112 49 -206.667 147 -284l401 -317l35 -29.5
c19.333 -16.333 34.666 -28.833 45.999 -37.5s26.166 -19.167 44.499 -31.5s35.166 -21.5 50.499 -27.5s29.666 -9 42.999 -9h1h1c13.333 0 27.666 3 42.999 9s32.166 15.167 50.499 27.5s33.166 22.833 44.499 31.5s26.666 21.167 45.999 37.5l35 29.5l401 317
c36 28.667 69.5 67.167 100.5 115.5s46.5 92.166 46.5 131.499zM1792.01 1120v-1088c0 -44 -15.667 -81.667 -47 -113s-69 -47 -113 -47h-1472c-44 0 -81.667 15.667 -113 47s-47 69 -47 113v1088c0 44 15.667 81.667 47 113s69 47 113 47h1472c44 0 81.667 -15.667 113 -47
s47 -69 47 -113z" />
    <glyph glyph-name="heart" unicode="&#xf004;" horiz-adv-x="1792" 
d="M896 -128c-17.333 0 -31.999 6.00098 -43.999 18.001l-624 602c-6.66699 5.33301 -15.834 14 -27.501 26s-30.167 33.833 -55.5 65.5s-48 64.167 -68 97.5s-37.833 73.666 -53.5 120.999s-23.5 93.333 -23.5 138c-0 146.667 42.333 261.334 127 344.001
s201.667 124 351 124c41.333 0 83.5 -7.16699 126.5 -21.5s83 -33.666 120 -57.999s68.833 -47.166 95.5 -68.499s52 -44 76 -68c24 24 49.333 46.667 76 68s58.5 44.166 95.5 68.499s77 43.666 120 57.999s85.167 21.5 126.5 21.5c149.333 0 266.333 -41.333 351 -124
s127 -197.334 127 -344.001c0 -147.333 -76.333 -297.333 -229 -450l-623 -600c-12 -12 -26.667 -18 -44 -18z" />
    <glyph glyph-name="star" unicode="&#xf005;" horiz-adv-x="1664" 
d="M1664 889c0 -14.667 -8.66699 -30.666 -26 -47.999l-363 -354l86 -500c0.666992 -4.66699 1 -11.334 1 -20.001c0 -14 -3.5 -25.833 -10.5 -35.5s-17.167 -14.5 -30.5 -14.5c-12.667 0 -26 4 -40 12l-449 236l-449 -236c-14.667 -8 -28 -12 -40 -12
c-14 0 -24.5 4.83301 -31.5 14.5s-10.5 21.5 -10.5 35.5c0 4 0.666992 10.667 2 20l86 500l-364 354c-16.667 18 -25 34 -25 48c0 24.667 18.667 40 56 46l502 73l225 455c12.667 27.333 29 41 49 41s36.333 -13.667 49 -41l225 -455l502 -73c37.333 -6 56 -21.333 56 -46z
" />
    <glyph glyph-name="star_empty" unicode="&#xf006;" horiz-adv-x="1664" 
d="M1137 532l306 297l-422 62l-189 382l-189 -382l-422 -62l306 -297l-73 -421l378 199l377 -199zM1664 889c0 -14.667 -8.66699 -30.666 -26 -47.999l-363 -354l86 -500c0.666992 -4.66699 1 -11.334 1 -20.001c0 -33.333 -13.667 -50 -41 -50c-12.667 0 -26 4 -40 12
l-449 236l-449 -236c-14.667 -8 -28 -12 -40 -12c-14 0 -24.5 4.83301 -31.5 14.5s-10.5 21.5 -10.5 35.5c0 4 0.666992 10.667 2 20l86 500l-364 354c-16.667 18 -25 34 -25 48c0 24.667 18.667 40 56 46l502 73l225 455c12.667 27.333 29 41 49 41s36.333 -13.667 49 -41
l225 -455l502 -73c37.333 -6 56 -21.333 56 -46z" />
    <glyph glyph-name="user" unicode="&#xf007;" horiz-adv-x="1408" 
d="M1408 131c0 -80 -24.333 -143.167 -73 -189.5s-113.334 -69.5 -194.001 -69.5h-874c-80.667 0 -145.334 23.167 -194.001 69.5s-73 109.5 -73 189.5c0 35.333 1.16699 69.833 3.5 103.5s7 70 14 109s15.833 75.167 26.5 108.5s25 65.833 43 97.5s38.667 58.667 62 81
s51.833 40.166 85.5 53.499s70.834 20 111.501 20c6 0 20 -7.16699 42 -21.5l74.5 -48c27.667 -17.667 63.667 -33.667 108 -48s88.833 -21.5 133.5 -21.5s89.167 7.16699 133.5 21.5s80.333 30.333 108 48l74.5 48c22 14.333 36 21.5 42 21.5
c40.667 0 77.834 -6.66699 111.501 -20s62.167 -31.166 85.5 -53.499s44 -49.333 62 -81s32.333 -64.167 43 -97.5s19.5 -69.5 26.5 -108.5s11.667 -75.333 14 -109s3.5 -68.167 3.5 -103.5zM1088 1024c0 -106 -37.5 -196.5 -112.5 -271.5s-165.5 -112.5 -271.5 -112.5
s-196.5 37.5 -271.5 112.5s-112.5 165.5 -112.5 271.5s37.5 196.5 112.5 271.5s165.5 112.5 271.5 112.5s196.5 -37.5 271.5 -112.5s112.5 -165.5 112.5 -271.5z" />
    <glyph glyph-name="film" unicode="&#xf008;" horiz-adv-x="1920" 
d="M384 -64v128c0 17.333 -6.33301 32.333 -19 45s-27.667 19 -45 19h-128c-17.333 0 -32.333 -6.33301 -45 -19s-19 -27.667 -19 -45v-128c0 -17.333 6.33301 -32.333 19 -45s27.667 -19 45 -19h128c17.333 0 32.333 6.33301 45 19s19 27.667 19 45zM384 320v128
c0 17.333 -6.33301 32.333 -19 45s-27.667 19 -45 19h-128c-17.333 0 -32.333 -6.33301 -45 -19s-19 -27.667 -19 -45v-128c0 -17.333 6.33301 -32.333 19 -45s27.667 -19 45 -19h128c17.333 0 32.333 6.33301 45 19s19 27.667 19 45zM384 704v128
c0 17.333 -6.33301 32.333 -19 45s-27.667 19 -45 19h-128c-17.333 0 -32.333 -6.33301 -45 -19s-19 -27.667 -19 -45v-128c0 -17.333 6.33301 -32.333 19 -45s27.667 -19 45 -19h128c17.333 0 32.333 6.33301 45 19s19 27.667 19 45zM1408 -64v512
c0 17.333 -6.33301 32.333 -19 45s-27.667 19 -45 19h-768c-17.333 0 -32.333 -6.33301 -45 -19s-19 -27.667 -19 -45v-512c0 -17.333 6.33301 -32.333 19 -45s27.667 -19 45 -19h768c17.333 0 32.333 6.33301 45 19s19 27.667 19 45zM384 1088v128
c0 17.333 -6.33301 32.333 -19 45s-27.667 19 -45 19h-128c-17.333 0 -32.333 -6.33301 -45 -19s-19 -27.667 -19 -45v-128c0 -17.333 6.33301 -32.333 19 -45s27.667 -19 45 -19h128c17.333 0 32.333 6.33301 45 19s19 27.667 19 45zM1792 -64v128
c0 17.333 -6.33301 32.333 -19 45s-27.667 19 -45 19h-128c-17.333 0 -32.333 -6.33301 -45 -19s-19 -27.667 -19 -45v-128c0 -17.333 6.33301 -32.333 19 -45s27.667 -19 45 -19h128c17.333 0 32.333 6.33301 45 19s19 27.667 19 45zM1408 704v512
c0 17.333 -6.33301 32.333 -19 45s-27.667 19 -45 19h-768c-17.333 0 -32.333 -6.33301 -45 -19s-19 -27.667 -19 -45v-512c0 -17.333 6.33301 -32.333 19 -45s27.667 -19 45 -19h768c17.333 0 32.333 6.33301 45 19s19 27.667 19 45zM1792 320v128
c0 17.333 -6.33301 32.333 -19 45s-27.667 19 -45 19h-128c-17.333 0 -32.333 -6.33301 -45 -19s-19 -27.667 -19 -45v-128c0 -17.333 6.33301 -32.333 19 -45s27.667 -19 45 -19h128c17.333 0 32.333 6.33301 45 19s19 27.667 19 45zM1792 704v128
c0 17.333 -6.33301 32.333 -19 45s-27.667 19 -45 19h-128c-17.333 0 -32.333 -6.33301 -45 -19s-19 -27.667 -19 -45v-128c0 -17.333 6.33301 -32.333 19 -45s27.667 -19 45 -19h128c17.333 0 32.333 6.33301 45 19s19 27.667 19 45zM1792 1088v128
c0 17.333 -6.33301 32.333 -19 45s-27.667 19 -45 19h-128c-17.333 0 -32.333 -6.33301 -45 -19s-19 -27.667 -19 -45v-128c0 -17.333 6.33301 -32.333 19 -45s27.667 -19 45 -19h128c17.333 0 32.333 6.33301 45 19s19 27.667 19 45zM1920 1248v-1344
c0 -44 -15.667 -81.667 -47 -113s-69 -47 -113 -47h-1600c-44 0 -81.667 15.667 -113 47s-47 69 -47 113v1344c0 44 15.667 81.667 47 113s69 47 113 47h1600c44 0 81.667 -15.667 113 -47s47 -69 47 -113z" />
    <glyph glyph-name="th_large" unicode="&#xf009;" horiz-adv-x="1664" 
d="M768 512v-384c0 -34.667 -12.667 -64.667 -38 -90s-55.333 -38 -90 -38h-512c-34.667 0 -64.667 12.667 -90 38s-38 55.333 -38 90v384c0 34.667 12.667 64.667 38 90s55.333 38 90 38h512c34.667 0 64.667 -12.667 90 -38s38 -55.333 38 -90zM768 1280v-384
c0 -34.667 -12.667 -64.667 -38 -90s-55.333 -38 -90 -38h-512c-34.667 0 -64.667 12.667 -90 38s-38 55.333 -38 90v384c0 34.667 12.667 64.667 38 90s55.333 38 90 38h512c34.667 0 64.667 -12.667 90 -38s38 -55.333 38 -90zM1664 512v-384
c0 -34.667 -12.667 -64.667 -38 -90s-55.333 -38 -90 -38h-512c-34.667 0 -64.667 12.667 -90 38s-38 55.333 -38 90v384c0 34.667 12.667 64.667 38 90s55.333 38 90 38h512c34.667 0 64.667 -12.667 90 -38s38 -55.333 38 -90zM1664 1280v-384
c0 -34.667 -12.667 -64.667 -38 -90s-55.333 -38 -90 -38h-512c-34.667 0 -64.667 12.667 -90 38s-38 55.333 -38 90v384c0 34.667 12.667 64.667 38 90s55.333 38 90 38h512c34.667 0 64.667 -12.667 90 -38s38 -55.333 38 -90z" />
    <glyph glyph-name="th" unicode="&#xf00a;" horiz-adv-x="1792" 
d="M512 288v-192c0 -26.667 -9.33301 -49.334 -28 -68.001s-41.334 -28 -68.001 -28h-320c-26.667 0 -49.334 9.33301 -68.001 28s-28 41.334 -28 68.001v192c0 26.667 9.33301 49.334 28 68.001s41.334 28 68.001 28h320c26.667 0 49.334 -9.33301 68.001 -28
s28 -41.334 28 -68.001zM512 800v-192c0 -26.667 -9.33301 -49.334 -28 -68.001s-41.334 -28 -68.001 -28h-320c-26.667 0 -49.334 9.33301 -68.001 28s-28 41.334 -28 68.001v192c0 26.667 9.33301 49.334 28 68.001s41.334 28 68.001 28h320
c26.667 0 49.334 -9.33301 68.001 -28s28 -41.334 28 -68.001zM1152 288v-192c0 -26.667 -9.33301 -49.334 -28 -68.001s-41.334 -28 -68.001 -28h-320c-26.667 0 -49.334 9.33301 -68.001 28s-28 41.334 -28 68.001v192c0 26.667 9.33301 49.334 28 68.001
s41.334 28 68.001 28h320c26.667 0 49.334 -9.33301 68.001 -28s28 -41.334 28 -68.001zM512 1312v-192c0 -26.667 -9.33301 -49.334 -28 -68.001s-41.334 -28 -68.001 -28h-320c-26.667 0 -49.334 9.33301 -68.001 28s-28 41.334 -28 68.001v192
c0 26.667 9.33301 49.334 28 68.001s41.334 28 68.001 28h320c26.667 0 49.334 -9.33301 68.001 -28s28 -41.334 28 -68.001zM1152 800v-192c0 -26.667 -9.33301 -49.334 -28 -68.001s-41.334 -28 -68.001 -28h-320c-26.667 0 -49.334 9.33301 -68.001 28
s-28 41.334 -28 68.001v192c0 26.667 9.33301 49.334 28 68.001s41.334 28 68.001 28h320c26.667 0 49.334 -9.33301 68.001 -28s28 -41.334 28 -68.001zM1792 288v-192c0 -26.667 -9.33301 -49.334 -28 -68.001s-41.334 -28 -68.001 -28h-320
c-26.667 0 -49.334 9.33301 -68.001 28s-28 41.334 -28 68.001v192c0 26.667 9.33301 49.334 28 68.001s41.334 28 68.001 28h320c26.667 0 49.334 -9.33301 68.001 -28s28 -41.334 28 -68.001zM1152 1312v-192c0 -26.667 -9.33301 -49.334 -28 -68.001
s-41.334 -28 -68.001 -28h-320c-26.667 0 -49.334 9.33301 -68.001 28s-28 41.334 -28 68.001v192c0 26.667 9.33301 49.334 28 68.001s41.334 28 68.001 28h320c26.667 0 49.334 -9.33301 68.001 -28s28 -41.334 28 -68.001zM1792 800v-192
c0 -26.667 -9.33301 -49.334 -28 -68.001s-41.334 -28 -68.001 -28h-320c-26.667 0 -49.334 9.33301 -68.001 28s-28 41.334 -28 68.001v192c0 26.667 9.33301 49.334 28 68.001s41.334 28 68.001 28h320c26.667 0 49.334 -9.33301 68.001 -28s28 -41.334 28 -68.001z
M1792 1312v-192c0 -26.667 -9.33301 -49.334 -28 -68.001s-41.334 -28 -68.001 -28h-320c-26.667 0 -49.334 9.33301 -68.001 28s-28 41.334 -28 68.001v192c0 26.667 9.33301 49.334 28 68.001s41.334 28 68.001 28h320c26.667 0 49.334 -9.33301 68.001 -28
s28 -41.334 28 -68.001z" />
    <glyph glyph-name="th_list" unicode="&#xf00b;" horiz-adv-x="1792" 
d="M512 288v-192c0 -26.667 -9.33301 -49.334 -28 -68.001s-41.334 -28 -68.001 -28h-320c-26.667 0 -49.334 9.33301 -68.001 28s-28 41.334 -28 68.001v192c0 26.667 9.33301 49.334 28 68.001s41.334 28 68.001 28h320c26.667 0 49.334 -9.33301 68.001 -28
s28 -41.334 28 -68.001zM512 800v-192c0 -26.667 -9.33301 -49.334 -28 -68.001s-41.334 -28 -68.001 -28h-320c-26.667 0 -49.334 9.33301 -68.001 28s-28 41.334 -28 68.001v192c0 26.667 9.33301 49.334 28 68.001s41.334 28 68.001 28h320
c26.667 0 49.334 -9.33301 68.001 -28s28 -41.334 28 -68.001zM1792 288v-192c0 -26.667 -9.33301 -49.334 -28 -68.001s-41.334 -28 -68.001 -28h-960c-26.667 0 -49.334 9.33301 -68.001 28s-28 41.334 -28 68.001v192c0 26.667 9.33301 49.334 28 68.001
s41.334 28 68.001 28h960c26.667 0 49.334 -9.33301 68.001 -28s28 -41.334 28 -68.001zM512 1312v-192c0 -26.667 -9.33301 -49.334 -28 -68.001s-41.334 -28 -68.001 -28h-320c-26.667 0 -49.334 9.33301 -68.001 28s-28 41.334 -28 68.001v192
c0 26.667 9.33301 49.334 28 68.001s41.334 28 68.001 28h320c26.667 0 49.334 -9.33301 68.001 -28s28 -41.334 28 -68.001zM1792 800v-192c0 -26.667 -9.33301 -49.334 -28 -68.001s-41.334 -28 -68.001 -28h-960c-26.667 0 -49.334 9.33301 -68.001 28
s-28 41.334 -28 68.001v192c0 26.667 9.33301 49.334 28 68.001s41.334 28 68.001 28h960c26.667 0 49.334 -9.33301 68.001 -28s28 -41.334 28 -68.001zM1792 1312v-192c0 -26.667 -9.33301 -49.334 -28 -68.001s-41.334 -28 -68.001 -28h-960
c-26.667 0 -49.334 9.33301 -68.001 28s-28 41.334 -28 68.001v192c0 26.667 9.33301 49.334 28 68.001s41.334 28 68.001 28h960c26.667 0 49.334 -9.33301 68.001 -28s28 -41.334 28 -68.001z" />
    <glyph glyph-name="ok" unicode="&#xf00c;" horiz-adv-x="1792" 
d="M1671 970c0 -26.667 -9.33496 -49.334 -28.002 -68.001l-724 -724l-136 -136c-18.667 -18.667 -41.334 -28 -68.001 -28s-49.334 9.33301 -68.001 28l-136 136l-362 362c-18.667 18.667 -28 41.334 -28 68.001s9.33301 49.334 28 68.001l136 136
c18.667 18.667 41.334 28 68.001 28s49.334 -9.33301 68.001 -28l294 -295l656 657c18.667 18.667 41.334 28 68.001 28s49.334 -9.33301 68.001 -28l136 -136c18.667 -18.667 28 -41.334 28 -68.001z" />
    <glyph glyph-name="remove" unicode="&#xf00d;" horiz-adv-x="1408" 
d="M1298 214c0 -26.667 -9.33301 -49.334 -28 -68.001l-136 -136c-18.667 -18.667 -41.334 -28 -68.001 -28s-49.334 9.33301 -68.001 28l-294 294l-294 -294c-18.667 -18.667 -41.334 -28 -68.001 -28s-49.334 9.33301 -68.001 28l-136 136
c-18.667 18.667 -28 41.334 -28 68.001s9.33301 49.334 28 68.001l294 294l-294 294c-18.667 18.667 -28 41.334 -28 68.001s9.33301 49.334 28 68.001l136 136c18.667 18.667 41.334 28 68.001 28s49.334 -9.33301 68.001 -28l294 -294l294 294
c18.667 18.667 41.334 28 68.001 28s49.334 -9.33301 68.001 -28l136 -136c18.667 -18.667 28 -41.334 28 -68.001s-9.33301 -49.334 -28 -68.001l-294 -294l294 -294c18.667 -18.667 28 -41.334 28 -68.001z" />
    <glyph glyph-name="zoom_in" unicode="&#xf00e;" horiz-adv-x="1664" 
d="M1024 736v-64c0 -8.66699 -3.16699 -16.167 -9.5 -22.5s-13.833 -9.5 -22.5 -9.5h-224v-224c0 -8.66699 -3.16699 -16.167 -9.5 -22.5s-13.833 -9.5 -22.5 -9.5h-64c-8.66699 0 -16.167 3.16699 -22.5 9.5s-9.5 13.833 -9.5 22.5v224h-224
c-8.66699 0 -16.167 3.16699 -22.5 9.5s-9.5 13.833 -9.5 22.5v64c0 8.66699 3.16699 16.167 9.5 22.5s13.833 9.5 22.5 9.5h224v224c0 8.66699 3.16699 16.167 9.5 22.5s13.833 9.5 22.5 9.5h64c8.66699 0 16.167 -3.16699 22.5 -9.5s9.5 -13.833 9.5 -22.5v-224h224
c8.66699 0 16.167 -3.16699 22.5 -9.5s9.5 -13.833 9.5 -22.5zM1152 704c0 123.333 -43.833 228.833 -131.5 316.5s-193.167 131.5 -316.5 131.5s-228.833 -43.833 -316.5 -131.5s-131.5 -193.167 -131.5 -316.5s43.833 -228.833 131.5 -316.5s193.167 -131.5 316.5 -131.5
s228.833 43.833 316.5 131.5s131.5 193.167 131.5 316.5zM1664 -128c0 -35.333 -12.5 -65.5 -37.5 -90.5s-55.167 -37.5 -90.5 -37.5c-36 0 -66 12.667 -90 38l-343 342c-119.333 -82.667 -252.333 -124 -399 -124c-95.333 0 -186.5 18.5 -273.5 55.5s-162 87 -225 150
s-113 138 -150 225s-55.5 178.167 -55.5 273.5s18.5 186.5 55.5 273.5s87 162 150 225s138 113 225 150s178.167 55.5 273.5 55.5s186.5 -18.5 273.5 -55.5s162 -87 225 -150s113 -138 150 -225s55.5 -178.167 55.5 -273.5c0 -146.667 -41.333 -279.667 -124 -399l343 -343
c24.667 -24.667 37 -54.667 37 -90z" />
    <glyph glyph-name="zoom_out" unicode="&#xf010;" horiz-adv-x="1664" 
d="M1024 736v-64c0 -8.66699 -3.16699 -16.167 -9.5 -22.5s-13.833 -9.5 -22.5 -9.5h-576c-8.66699 0 -16.167 3.16699 -22.5 9.5s-9.5 13.833 -9.5 22.5v64c0 8.66699 3.16699 16.167 9.5 22.5s13.833 9.5 22.5 9.5h576c8.66699 0 16.167 -3.16699 22.5 -9.5
s9.5 -13.833 9.5 -22.5zM1152 704c0 123.333 -43.833 228.833 -131.5 316.5s-193.167 131.5 -316.5 131.5s-228.833 -43.833 -316.5 -131.5s-131.5 -193.167 -131.5 -316.5s43.833 -228.833 131.5 -316.5s193.167 -131.5 316.5 -131.5s228.833 43.833 316.5 131.5
s131.5 193.167 131.5 316.5zM1664 -128c0 -35.333 -12.5 -65.5 -37.5 -90.5s-55.167 -37.5 -90.5 -37.5c-36 0 -66 12.667 -90 38l-343 342c-119.333 -82.667 -252.333 -124 -399 -124c-95.333 0 -186.5 18.5 -273.5 55.5s-162 87 -225 150s-113 138 -150 225
s-55.5 178.167 -55.5 273.5s18.5 186.5 55.5 273.5s87 162 150 225s138 113 225 150s178.167 55.5 273.5 55.5s186.5 -18.5 273.5 -55.5s162 -87 225 -150s113 -138 150 -225s55.5 -178.167 55.5 -273.5c0 -146.667 -41.333 -279.667 -124 -399l343 -343
c24.667 -24.667 37 -54.667 37 -90z" />
    <glyph glyph-name="off" unicode="&#xf011;" 
d="M1536 640c0 -104 -20.3291 -203.333 -60.9961 -298s-95.334 -176.334 -164.001 -245.001s-150.334 -123.334 -245.001 -164.001s-194 -61 -298 -61s-203.333 20.333 -298 61s-176.334 95.334 -245.001 164.001s-123.334 150.334 -164.001 245.001s-61 194 -61 298
c-0 121.333 26.833 235.666 80.5 342.999s129.167 197.333 226.5 270c28.667 21.333 60.5 29.666 95.5 24.999s62.833 -21.334 83.5 -50.001c21.333 -28 29.5 -59.5 24.5 -94.5s-21.5 -63.167 -49.5 -84.5c-65.333 -49.333 -115.833 -109.666 -151.5 -180.999
s-53.5 -147.333 -53.5 -228c0 -69.333 13.5 -135.5 40.5 -198.5s63.5 -117.5 109.5 -163.5s100.5 -82.5 163.5 -109.5s129.167 -40.5 198.5 -40.5s135.5 13.5 198.5 40.5s117.5 63.5 163.5 109.5s82.5 100.5 109.5 163.5s40.5 129.167 40.5 198.5
c0 80.667 -17.833 156.667 -53.5 228s-86.167 131.666 -151.5 180.999c-28 21.333 -44.5 49.5 -49.5 84.5s3.16699 66.5 24.5 94.5c20.667 28.667 48.667 45.334 84 50.001s67 -3.66602 95 -24.999c97.333 -72.667 172.833 -162.667 226.5 -270s80.5 -221.666 80.5 -342.999
zM896.004 1408v-640c0 -34.667 -12.667 -64.667 -38 -90s-55.333 -38 -90 -38s-64.667 12.667 -90 38s-38 55.333 -38 90v640c0 34.667 12.667 64.667 38 90s55.333 38 90 38s64.667 -12.667 90 -38s38 -55.333 38 -90z" />
    <glyph glyph-name="signal" unicode="&#xf012;" horiz-adv-x="1792" 
d="M256 96v-192c0 -9.33301 -3 -17 -9 -23s-13.667 -9 -23 -9h-192c-9.33301 0 -17 3 -23 9s-9 13.667 -9 23v192c0 9.33301 3 17 9 23s13.667 9 23 9h192c9.33301 0 17 -3 23 -9s9 -13.667 9 -23zM640 224v-320c0 -9.33301 -3 -17 -9 -23s-13.667 -9 -23 -9h-192
c-9.33301 0 -17 3 -23 9s-9 13.667 -9 23v320c0 9.33301 3 17 9 23s13.667 9 23 9h192c9.33301 0 17 -3 23 -9s9 -13.667 9 -23zM1024 480v-576c0 -9.33301 -3 -17 -9 -23s-13.667 -9 -23 -9h-192c-9.33301 0 -17 3 -23 9s-9 13.667 -9 23v576c0 9.33301 3 17 9 23
s13.667 9 23 9h192c9.33301 0 17 -3 23 -9s9 -13.667 9 -23zM1408 864v-960c0 -9.33301 -3 -17 -9 -23s-13.667 -9 -23 -9h-192c-9.33301 0 -17 3 -23 9s-9 13.667 -9 23v960c0 9.33301 3 17 9 23s13.667 9 23 9h192c9.33301 0 17 -3 23 -9s9 -13.667 9 -23zM1792 1376
v-1472c0 -9.33301 -3 -17 -9 -23s-13.667 -9 -23 -9h-192c-9.33301 0 -17 3 -23 9s-9 13.667 -9 23v1472c0 9.33301 3 17 9 23s13.667 9 23 9h192c9.33301 0 17 -3 23 -9s9 -13.667 9 -23z" />
    <glyph glyph-name="cog" unicode="&#xf013;" 
d="M1024 640c0 70.667 -25 131 -75 181s-110.333 75 -181 75s-131 -25 -181 -75s-75 -110.333 -75 -181s25 -131 75 -181s110.333 -75 181 -75s131 25 181 75s75 110.333 75 181zM1536 749l0.000976562 -222.003c0 -8 -2.66699 -15.667 -8 -23s-12 -11.666 -20 -12.999
l-185 -28c-12.667 -36 -25.667 -66.333 -39 -91c23.333 -33.333 59 -79.333 107 -138c6.66699 -8 10 -16.333 10 -25s-3 -16.334 -9 -23.001c-18 -24.667 -51 -60.667 -99 -108s-79.333 -71 -94 -71c-8 0 -16.667 3 -26 9l-138 108c-29.333 -15.333 -59.666 -28 -90.999 -38
c-10.667 -90.667 -20.334 -152.667 -29.001 -186c-4.66699 -18.667 -16.667 -28 -36 -28h-222c-9.33301 0 -17.5 2.83301 -24.5 8.5s-10.833 12.834 -11.5 21.501l-28 184c-32.667 10.667 -62.667 23 -90 37l-141 -107c-6.66699 -6 -15 -9 -25 -9
c-9.33301 0 -17.666 3.66699 -24.999 11c-84 76 -139 132 -165 168c-4.66699 6.66699 -7 14.334 -7 23.001c0 8 2.66699 15.667 8 23c10 14 27 36.167 51 66.5s42 53.833 54 70.5c-18 33.333 -31.667 66.333 -41 99l-183 27c-8.66699 1.33301 -15.667 5.5 -21 12.5
s-8 14.833 -8 23.5v222c0 8 2.66699 15.667 8 23s11.666 11.666 18.999 12.999l186 28c9.33301 30.667 22.333 61.334 39 92.001c-26.667 38 -62.334 84 -107.001 138c-6.66699 8 -10 16 -10 24c0 6.66699 3 14.334 9 23.001c17.333 24 50.166 59.833 98.499 107.5
s79.833 71.5 94.5 71.5c8.66699 0 17.334 -3.33301 26.001 -10l138 -107c29.333 15.333 59.666 28 90.999 38c10.667 90.667 20.334 152.667 29.001 186c4.66699 18.667 16.667 28 36 28h222c9.33301 0 17.5 -2.83301 24.5 -8.5s10.833 -12.834 11.5 -21.501l28 -184
c32.667 -10.667 62.667 -23 90 -37l142 107c6 6 14 9 24 9c8.66699 0 17 -3.33301 25 -10c86 -79.333 141 -136 165 -170c4.66699 -5.33301 7 -12.666 7 -21.999c0 -8 -2.66699 -15.667 -8 -23c-10 -14 -27 -36.167 -51 -66.5s-42 -53.833 -54 -70.5
c17.333 -33.333 31 -66 41 -98l183 -28c8.66699 -1.33301 15.667 -5.5 21 -12.5s8 -14.833 8 -23.5z" />
    <glyph glyph-name="trash" unicode="&#xf014;" horiz-adv-x="1408" 
d="M512 800v-576c0 -9.33301 -3 -17 -9 -23s-13.667 -9 -23 -9h-64c-9.33301 0 -17 3 -23 9s-9 13.667 -9 23v576c0 9.33301 3 17 9 23s13.667 9 23 9h64c9.33301 0 17 -3 23 -9s9 -13.667 9 -23zM768 800v-576c0 -9.33301 -3 -17 -9 -23s-13.667 -9 -23 -9h-64
c-9.33301 0 -17 3 -23 9s-9 13.667 -9 23v576c0 9.33301 3 17 9 23s13.667 9 23 9h64c9.33301 0 17 -3 23 -9s9 -13.667 9 -23zM1024 800v-576c0 -9.33301 -3 -17 -9 -23s-13.667 -9 -23 -9h-64c-9.33301 0 -17 3 -23 9s-9 13.667 -9 23v576c0 9.33301 3 17 9 23
s13.667 9 23 9h64c9.33301 0 17 -3 23 -9s9 -13.667 9 -23zM1152 76v948h-896v-948c0 -14.667 2.33301 -28.167 7 -40.5s9.5 -21.333 14.5 -27s8.5 -8.5 10.5 -8.5h832c2 -0 5.5 2.83301 10.5 8.5s9.83301 14.667 14.5 27s7 25.833 7 40.5zM480 1152h448.002l-48 117
c-4.66699 6 -10.334 9.66699 -17.001 11h-317c-6.66699 -1.33301 -12.334 -5 -17.001 -11zM1408 1120v-64.001c0 -9.33301 -3 -17 -9 -23s-13.667 -9 -23 -9h-96v-948c0 -55.333 -15.667 -103.166 -47 -143.499s-69 -60.5 -113 -60.5h-832c-44 0 -81.667 19.5 -113 58.5
s-47 86.167 -47 141.5v952h-96c-9.33301 0 -17 3 -23 9s-9 13.667 -9 23v64c0 9.33301 3 17 9 23s13.667 9 23 9h309l70 167c10 24.667 28 45.667 54 63s52.333 26 79 26h320c26.667 0 53 -8.66699 79 -26s44 -38.333 54 -63l70 -167h309c9.33301 0 17 -3 23 -9
s9 -13.667 9 -23z" />
    <glyph glyph-name="home" unicode="&#xf015;" horiz-adv-x="1664" 
d="M1408 544v-480c0 -17.333 -6.33301 -32.333 -19 -45s-27.667 -19 -45 -19h-384v384h-256v-384h-384c-17.333 -0 -32.333 6.33301 -45 19s-19 27.667 -19 45v480c0 0.666992 0.166992 1.66699 0.5 3s0.5 2.33301 0.5 3l575 474l575 -474
c0.666992 -1.33301 1 -3.33301 1 -6zM1631 613l-62.002 -74.001c-5.33301 -6 -12.333 -9.66699 -21 -11h-3c-8.66699 0 -15.667 2.33301 -21 7l-692 577l-692 -577c-8 -5.33301 -16 -7.66602 -24 -6.99902c-8.66699 1.33301 -15.667 5 -21 11l-62 74
c-5.33301 6.66699 -7.66602 14.5 -6.99902 23.5s4.33398 16.167 11.001 21.5l719 599c21.333 17.333 46.666 26 75.999 26s54.666 -8.66699 75.999 -26l244 -204v195c0 9.33301 3 17 9 23s13.667 9 23 9h192c9.33301 0 17 -3 23 -9s9 -13.667 9 -23v-408l219 -182
c6.66699 -5.33301 10.334 -12.5 11.001 -21.5s-1.66602 -16.833 -6.99902 -23.5z" />
    <glyph glyph-name="file_alt" unicode="&#xf016;" horiz-adv-x="1280" 
d="M128 0l1024 -0.000976562v768h-416c-26.667 0 -49.334 9.33301 -68.001 28s-28 41.334 -28 68.001v416h-512v-1280zM768.001 895.999h376c-6.66699 19.333 -14 33 -22 41l-313 313c-8 8 -21.667 15.333 -41 22v-376zM1280 863.999l0.000976562 -896.001
c0 -26.667 -9.33301 -49.334 -28 -68.001s-41.334 -28 -68.001 -28h-1088c-26.667 0 -49.334 9.33301 -68.001 28s-28 41.334 -28 68.001v1344c-0 26.667 9.33301 49.334 28 68.001s41.334 28 68.001 28h640c26.667 0 56 -6.66699 88 -20s57.333 -29.333 76 -48l312 -312
c18.667 -18.667 34.667 -44 48 -76s20 -61.333 20 -88z" />
    <glyph glyph-name="time" unicode="&#xf017;" 
d="M896 992v-448c0 -9.33301 -3 -17 -9 -23s-13.667 -9 -23 -9h-320c-9.33301 0 -17 3 -23 9s-9 13.667 -9 23v64c0 9.33301 3 17 9 23s13.667 9 23 9h224v352c0 9.33301 3 17 9 23s13.667 9 23 9h64c9.33301 0 17 -3 23 -9s9 -13.667 9 -23zM1312 640
c0 98.667 -24.333 189.667 -73 273s-114.667 149.333 -198 198s-174.333 73 -273 73s-189.667 -24.333 -273 -73s-149.333 -114.667 -198 -198s-73 -174.333 -73 -273s24.333 -189.667 73 -273s114.667 -149.333 198 -198s174.333 -73 273 -73s189.667 24.333 273 73
s149.333 114.667 198 198s73 174.333 73 273zM1536 640c0 -139.333 -34.333 -267.833 -103 -385.5s-161.834 -210.834 -279.501 -279.501s-246.167 -103 -385.5 -103s-267.833 34.333 -385.5 103s-210.834 161.834 -279.501 279.501s-103 246.167 -103 385.5
s34.333 267.833 103 385.5s161.834 210.834 279.501 279.501s246.167 103 385.5 103s267.833 -34.333 385.5 -103s210.834 -161.834 279.501 -279.501s103 -246.167 103 -385.5z" />
    <glyph glyph-name="road" unicode="&#xf018;" horiz-adv-x="1920" 
d="M1111 540l0.00390625 4l-24 320c-0.666992 8.66699 -4.33398 16.167 -11.001 22.5s-14.334 9.5 -23.001 9.5h-186c-8.66699 0 -16.334 -3.16699 -23.001 -9.5s-10.334 -13.833 -11.001 -22.5l-24 -320v-4c-0.666992 -8 2 -14.667 8 -20s13 -8 21 -8h244
c8 0 15 2.66699 21 8s8.66699 12 8 20zM1870 73c0 -48.667 -15.3252 -73 -45.9922 -73h-704c8.66699 0 16 3.16699 22 9.5s8.66699 13.833 8 22.5l-20 256c-0.666992 8.66699 -4.33398 16.167 -11.001 22.5s-14.334 9.5 -23.001 9.5h-272
c-8.66699 0 -16.334 -3.16699 -23.001 -9.5s-10.334 -13.833 -11.001 -22.5l-20 -256c-0.666992 -8.66699 2 -16.167 8 -22.5s13.333 -9.5 22 -9.5h-704c-30.667 -0 -46 24.333 -46 73c0 36 8.66699 74.667 26 116l417 1044c5.33301 12.667 14 23.667 26 33s24.667 14 38 14
h339c-8.66699 0 -16.334 -3.16699 -23.001 -9.5s-10.334 -13.833 -11.001 -22.5l-15 -192c-0.666992 -9.33301 2 -17 8 -23s13.333 -9 22 -9h166c8.66699 0 16 3 22 9s8.66699 13.667 8 23l-15 192c-0.666992 8.66699 -4.33398 16.167 -11.001 22.5s-14.334 9.5 -23.001 9.5
h339c13.333 0 26 -4.66699 38 -14s20.667 -20.333 26 -33l417 -1044c17.333 -41.333 26 -80 26 -116z" />
    <glyph glyph-name="download_alt" unicode="&#xf019;" horiz-adv-x="1664" 
d="M1280 192c0 17.333 -6.33301 32.333 -19 45s-27.667 19 -45 19s-32.333 -6.33301 -45 -19s-19 -27.667 -19 -45s6.33301 -32.333 19 -45s27.667 -19 45 -19s32.333 6.33301 45 19s19 27.667 19 45zM1536 192c0 17.333 -6.33301 32.333 -19 45s-27.667 19 -45 19
s-32.333 -6.33301 -45 -19s-19 -27.667 -19 -45s6.33301 -32.333 19 -45s27.667 -19 45 -19s32.333 6.33301 45 19s19 27.667 19 45zM1664 416v-320c0 -26.667 -9.33301 -49.334 -28 -68.001s-41.334 -28 -68.001 -28h-1472c-26.667 0 -49.334 9.33301 -68.001 28
s-28 41.334 -28 68.001v320c0 26.667 9.33301 49.334 28 68.001s41.334 28 68.001 28h465l135 -136c38.667 -37.333 84 -56 136 -56s97.333 18.667 136 56l136 136h464c26.667 0 49.334 -9.33301 68.001 -28s28 -41.334 28 -68.001zM1339 985
c11.333 -27.333 6.66797 -50.666 -13.999 -69.999l-448 -448c-12 -12.667 -27 -19 -45 -19s-33 6.33301 -45 19l-448 448c-20.667 19.333 -25.334 42.666 -14.001 69.999c11.333 26 31 39 59 39h256v448c0 17.333 6.33301 32.333 19 45s27.667 19 45 19h256
c17.333 0 32.333 -6.33301 45 -19s19 -27.667 19 -45v-448h256c28 0 47.667 -13 59 -39z" />
    <glyph glyph-name="download" unicode="&#xf01a;" 
d="M1120 608c0 -8 -3.33301 -16.001 -10 -24.001l-319 -319c-7.33301 -6 -15 -9 -23 -9s-15.667 3 -23 9l-320 320c-10 10.667 -12.333 22.334 -7 35.001c5.33301 13.333 15.333 20 30 20h192v352c0 9.33301 3 17 9 23s13.667 9 23 9h192c9.33301 0 17 -3 23 -9
s9 -13.667 9 -23v-352h192c9.33301 0 17 -3 23 -9s9 -13.667 9 -23zM768 1184c-98.667 0 -189.667 -24.333 -273 -73s-149.333 -114.667 -198 -198s-73 -174.333 -73 -273s24.333 -189.667 73 -273s114.667 -149.333 198 -198s174.333 -73 273 -73s189.667 24.333 273 73
s149.333 114.667 198 198s73 174.333 73 273s-24.333 189.667 -73 273s-114.667 149.333 -198 198s-174.333 73 -273 73zM1536 639.999c0 -139.333 -34.333 -267.833 -103 -385.5s-161.834 -210.834 -279.501 -279.501s-246.167 -103 -385.5 -103
s-267.833 34.333 -385.5 103s-210.834 161.834 -279.501 279.501s-103 246.167 -103 385.5s34.333 267.833 103 385.5s161.834 210.834 279.501 279.501s246.167 103 385.5 103s267.833 -34.333 385.5 -103s210.834 -161.834 279.501 -279.501s103 -246.167 103 -385.5z" />
    <glyph glyph-name="upload" unicode="&#xf01b;" 
d="M1118 660c-5.33301 -13.333 -15.333 -19.999 -30 -19.999h-192v-352c0 -9.33301 -3 -17 -9 -23s-13.667 -9 -23 -9h-192c-9.33301 0 -17 3 -23 9s-9 13.667 -9 23v352h-192c-9.33301 0 -17 3 -23 9s-9 13.667 -9 23c0 8 3.33301 16 10 24l319 319c7.33301 6 15 9 23 9
s15.667 -3 23 -9l320 -320c10 -10.667 12.333 -22.334 7 -35.001zM768 1184c-98.667 0 -189.667 -24.333 -273 -73s-149.333 -114.667 -198 -198s-73 -174.333 -73 -273s24.333 -189.667 73 -273s114.667 -149.333 198 -198s174.333 -73 273 -73s189.667 24.333 273 73
s149.333 114.667 198 198s73 174.333 73 273s-24.333 189.667 -73 273s-114.667 149.333 -198 198s-174.333 73 -273 73zM1536 640.001c0 -139.333 -34.333 -267.833 -103 -385.5s-161.834 -210.834 -279.501 -279.501s-246.167 -103 -385.5 -103
s-267.833 34.333 -385.5 103s-210.834 161.834 -279.501 279.501s-103 246.167 -103 385.5s34.333 267.833 103 385.5s161.834 210.834 279.501 279.501s246.167 103 385.5 103s267.833 -34.333 385.5 -103s210.834 -161.834 279.501 -279.501s103 -246.167 103 -385.5z" />
    <glyph glyph-name="inbox" unicode="&#xf01c;" 
d="M1023 576h316c-0.666992 2 -1.5 4.66699 -2.5 8s-1.83301 6 -2.5 8l-212 496h-708l-212 -496c-0.666992 -1.33301 -1.5 -4 -2.5 -8s-1.83301 -6.66699 -2.5 -8h316l95 -192h320zM1536 546l-0.00195312 -482c0 -17.333 -6.33301 -32.333 -19 -45s-27.667 -19 -45 -19
h-1408c-17.333 -0 -32.333 6.33301 -45 19s-19 27.667 -19 45v482c0 41.333 8.33301 82.333 25 123l238 552c6.66699 16.667 18.834 30.667 36.501 42s35.167 17 52.5 17h832c17.333 0 34.833 -5.66699 52.5 -17s29.834 -25.333 36.501 -42l238 -552
c16.667 -40.667 25 -81.667 25 -123z" />
    <glyph glyph-name="play_circle" unicode="&#xf01d;" 
d="M1184 640c0 -24.667 -10.666 -43.002 -31.999 -55.002l-544 -320c-10 -6 -20.667 -9 -32 -9c-10.667 0 -21.334 2.66699 -32.001 8c-21.333 12.667 -32 31.334 -32 56.001v640c0 24.667 10.667 43.334 32 56.001c22 12 43.333 11.667 64 -1l544 -320
c21.333 -12 32 -30.333 32 -55zM1312 639.998c0 98.667 -24.333 189.667 -73 273s-114.667 149.333 -198 198s-174.333 73 -273 73s-189.667 -24.333 -273 -73s-149.333 -114.667 -198 -198s-73 -174.333 -73 -273s24.333 -189.667 73 -273s114.667 -149.333 198 -198
s174.333 -73 273 -73s189.667 24.333 273 73s149.333 114.667 198 198s73 174.333 73 273zM1536 639.998c0 -139.333 -34.333 -267.833 -103 -385.5s-161.834 -210.834 -279.501 -279.501s-246.167 -103 -385.5 -103s-267.833 34.333 -385.5 103
s-210.834 161.834 -279.501 279.501s-103 246.167 -103 385.5s34.333 267.833 103 385.5s161.834 210.834 279.501 279.501s246.167 103 385.5 103s267.833 -34.333 385.5 -103s210.834 -161.834 279.501 -279.501s103 -246.167 103 -385.5z" />
    <glyph glyph-name="repeat" unicode="&#xf01e;" 
d="M1536 1280l-0.000976562 -448.006c0 -17.333 -6.33301 -32.333 -19 -45s-27.667 -19 -45 -19h-448c-28 0 -47.667 13.333 -59 40c-11.333 26 -6.66602 49 14.001 69l138 138c-98.667 91.333 -215 137 -349 137c-69.333 0 -135.5 -13.5 -198.5 -40.5
s-117.5 -63.5 -163.5 -109.5s-82.5 -100.5 -109.5 -163.5s-40.5 -129.167 -40.5 -198.5s13.5 -135.5 40.5 -198.5s63.5 -117.5 109.5 -163.5s100.5 -82.5 163.5 -109.5s129.167 -40.5 198.5 -40.5c79.333 0 154.333 17.333 225 52s130.334 83.667 179.001 147
c4.66699 6.66699 12.334 10.667 23.001 12c9.33301 0 17.666 -3 24.999 -9l137 -138c6 -5.33301 9.16699 -12.166 9.5 -20.499s-2.16699 -15.833 -7.5 -22.5c-72.667 -88 -160.667 -156.167 -264 -204.5s-212.333 -72.5 -327 -72.5c-104 0 -203.333 20.333 -298 61
s-176.334 95.334 -245.001 164.001s-123.334 150.334 -164.001 245.001s-61 194 -61 298s20.333 203.333 61 298s95.334 176.334 164.001 245.001s150.334 123.334 245.001 164.001s194 61 298 61c98 0 192.833 -18.5 284.5 -55.5s173.167 -89.167 244.5 -156.5l130 129
c19.333 20.667 42.666 25.334 69.999 14.001c26 -11.333 39 -31 39 -59z" />
    <glyph glyph-name="refresh" unicode="&#xf021;" 
d="M1511 480c0 -3.33301 -0.332031 -5.66699 -0.999023 -7c-42.667 -178.667 -132 -323.5 -268 -434.5s-295.333 -166.5 -478 -166.5c-97.333 0 -191.5 18.333 -282.5 55s-172.167 89 -243.5 157l-129 -129c-12.667 -12.667 -27.667 -19 -45 -19s-32.333 6.33301 -45 19
s-19 27.667 -19 45v448c0 17.333 6.33301 32.333 19 45s27.667 19 45 19h448c17.333 0 32.333 -6.33301 45 -19s19 -27.667 19 -45s-6.33301 -32.333 -19 -45l-137 -137c47.333 -44 101 -78 161 -102s122.333 -36 187 -36c89.333 0 172.666 21.667 249.999 65
s139.333 103 186 179c7.33301 11.333 25 50.333 53 117c5.33301 15.333 15.333 23 30 23h192c8.66699 0 16.167 -3.16699 22.5 -9.5s9.5 -13.833 9.5 -22.5zM1536 1280l-0.000976562 -448c0 -17.333 -6.33301 -32.333 -19 -45s-27.667 -19 -45 -19h-448
c-17.333 0 -32.333 6.33301 -45 19s-19 27.667 -19 45s6.33301 32.333 19 45l138 138c-98.667 91.333 -215 137 -349 137c-89.333 0 -172.666 -21.667 -249.999 -65s-139.333 -103 -186 -179c-7.33301 -11.333 -25 -50.333 -53 -117c-5.33301 -15.333 -15.333 -23 -30 -23
h-199c-8.66699 0 -16.167 3.16699 -22.5 9.5s-9.5 13.833 -9.5 22.5v7c43.333 178.667 133.333 323.5 270 434.5s296.667 166.5 480 166.5c97.333 0 192 -18.5 284 -55.5s173.667 -89.167 245 -156.5l130 129c12.667 12.667 27.667 19 45 19s32.333 -6.33301 45 -19
s19 -27.667 19 -45z" />
    <glyph glyph-name="list_alt" unicode="&#xf022;" horiz-adv-x="1792" 
d="M384 352v-64c0 -8.66699 -3.16699 -16.167 -9.5 -22.5s-13.833 -9.5 -22.5 -9.5h-64c-8.66699 0 -16.167 3.16699 -22.5 9.5s-9.5 13.833 -9.5 22.5v64c0 8.66699 3.16699 16.167 9.5 22.5s13.833 9.5 22.5 9.5h64c8.66699 0 16.167 -3.16699 22.5 -9.5
s9.5 -13.833 9.5 -22.5zM384 608v-64c0 -8.66699 -3.16699 -16.167 -9.5 -22.5s-13.833 -9.5 -22.5 -9.5h-64c-8.66699 0 -16.167 3.16699 -22.5 9.5s-9.5 13.833 -9.5 22.5v64c0 8.66699 3.16699 16.167 9.5 22.5s13.833 9.5 22.5 9.5h64
c8.66699 0 16.167 -3.16699 22.5 -9.5s9.5 -13.833 9.5 -22.5zM384 864v-64c0 -8.66699 -3.16699 -16.167 -9.5 -22.5s-13.833 -9.5 -22.5 -9.5h-64c-8.66699 0 -16.167 3.16699 -22.5 9.5s-9.5 13.833 -9.5 22.5v64c0 8.66699 3.16699 16.167 9.5 22.5s13.833 9.5 22.5 9.5
h64c8.66699 0 16.167 -3.16699 22.5 -9.5s9.5 -13.833 9.5 -22.5zM1536 352v-64c0 -8.66699 -3.16699 -16.167 -9.5 -22.5s-13.833 -9.5 -22.5 -9.5h-960c-8.66699 0 -16.167 3.16699 -22.5 9.5s-9.5 13.833 -9.5 22.5v64c0 8.66699 3.16699 16.167 9.5 22.5
s13.833 9.5 22.5 9.5h960c8.66699 0 16.167 -3.16699 22.5 -9.5s9.5 -13.833 9.5 -22.5zM1536 608v-64c0 -8.66699 -3.16699 -16.167 -9.5 -22.5s-13.833 -9.5 -22.5 -9.5h-960c-8.66699 0 -16.167 3.16699 -22.5 9.5s-9.5 13.833 -9.5 22.5v64
c0 8.66699 3.16699 16.167 9.5 22.5s13.833 9.5 22.5 9.5h960c8.66699 0 16.167 -3.16699 22.5 -9.5s9.5 -13.833 9.5 -22.5zM1536 864v-64c0 -8.66699 -3.16699 -16.167 -9.5 -22.5s-13.833 -9.5 -22.5 -9.5h-960c-8.66699 0 -16.167 3.16699 -22.5 9.5
s-9.5 13.833 -9.5 22.5v64c0 8.66699 3.16699 16.167 9.5 22.5s13.833 9.5 22.5 9.5h960c8.66699 0 16.167 -3.16699 22.5 -9.5s9.5 -13.833 9.5 -22.5zM1664 160v832c0 8.66699 -3.16699 16.167 -9.5 22.5s-13.833 9.5 -22.5 9.5h-1472
c-8.66699 0 -16.167 -3.16699 -22.5 -9.5s-9.5 -13.833 -9.5 -22.5v-832c0 -8.66699 3.16699 -16.167 9.5 -22.5s13.833 -9.5 22.5 -9.5h1472c8.66699 0 16.167 3.16699 22.5 9.5s9.5 13.833 9.5 22.5zM1792 1248v-1088c0 -44 -15.667 -81.667 -47 -113s-69 -47 -113 -47
h-1472c-44 0 -81.667 15.667 -113 47s-47 69 -47 113v1088c0 44 15.667 81.667 47 113s69 47 113 47h1472c44 0 81.667 -15.667 113 -47s47 -69 47 -113z" />
    <glyph glyph-name="lock" unicode="&#xf023;" horiz-adv-x="1152" 
d="M320 768h512v192c0 70.667 -25 131 -75 181s-110.333 75 -181 75s-131 -25 -181 -75s-75 -110.333 -75 -181v-192zM1152 672v-576c0 -26.667 -9.33301 -49.334 -28 -68.001s-41.334 -28 -68.001 -28h-960c-26.667 0 -49.334 9.33301 -68.001 28s-28 41.334 -28 68.001
v576c0 26.667 9.33301 49.334 28 68.001s41.334 28 68.001 28h32v192c0 122.667 44 228 132 316s193.333 132 316 132s228 -44 316 -132s132 -193.333 132 -316v-192h32c26.667 0 49.334 -9.33301 68.001 -28s28 -41.334 28 -68.001z" />
    <glyph glyph-name="flag" unicode="&#xf024;" horiz-adv-x="1792" 
d="M320 1280c0 -48 -21.333 -84.667 -64 -110v-1266c0 -8.66699 -3.16699 -16.167 -9.5 -22.5s-13.833 -9.5 -22.5 -9.5h-64c-8.66699 0 -16.167 3.16699 -22.5 9.5s-9.5 13.833 -9.5 22.5v1266c-42.667 25.333 -64 62 -64 110c0 35.333 12.5 65.5 37.5 90.5
s55.167 37.5 90.5 37.5s65.5 -12.5 90.5 -37.5s37.5 -55.167 37.5 -90.5zM1792 1216l0.00292969 -762.999c0 -16.667 -4.16699 -29.5 -12.5 -38.5s-21.5 -18.167 -39.5 -27.5c-143.333 -77.333 -266.333 -116 -369 -116c-40.667 0 -81.834 7.33301 -123.501 22
s-77.834 30.667 -108.501 48s-69.167 33.333 -115.5 48s-93.833 22 -142.5 22c-128 0 -282.667 -48.667 -464 -146c-11.333 -6 -22.333 -9 -33 -9c-17.333 0 -32.333 6.33301 -45 19s-19 27.667 -19 45v742c0 21.333 10.333 39.666 31 54.999
c14 9.33301 40.333 23.666 79 42.999c157.333 80 297.666 120 420.999 120c71.333 0 138 -9.66699 200 -29s135 -48.666 219 -87.999c25.333 -12.667 54.666 -19 87.999 -19c36 0 75.167 7 117.5 21s79 29.667 110 47s60.333 33 88 47s45.834 21 54.501 21
c17.333 0 32.333 -6.33301 45 -19s19 -27.667 19 -45z" />
    <glyph glyph-name="headphones" unicode="&#xf025;" horiz-adv-x="1664" 
d="M1664 650c0 -110.667 -20 -215.334 -60 -314.001l-20 -49l-185 -33c-14.667 -55.333 -44.834 -100.833 -90.501 -136.5s-97.834 -53.5 -156.501 -53.5v-32c0 -9.33301 -3 -17 -9 -23s-13.667 -9 -23 -9h-64c-9.33301 0 -17 3 -23 9s-9 13.667 -9 23v576
c0 9.33301 3 17 9 23s13.667 9 23 9h64c9.33301 0 17 -3 23 -9s9 -13.667 9 -23v-32c47.333 0 90.666 -11.833 129.999 -35.5s70.333 -55.5 93 -95.5l68 12c19.333 63.333 29 127.666 29 192.999c0 98.667 -29.333 191.667 -88 279s-137.5 157 -236.5 209
s-204.167 78 -315.5 78s-216.5 -26 -315.5 -78s-177.833 -121.667 -236.5 -209s-88 -180.333 -88 -279c0 -65.333 9.66699 -129.666 29 -192.999l68 -12c22.667 40 53.667 71.833 93 95.5s82.666 35.5 129.999 35.5v32c0 9.33301 3 17 9 23s13.667 9 23 9h64
c9.33301 0 17 -3 23 -9s9 -13.667 9 -23v-576c0 -9.33301 -3 -17 -9 -23s-13.667 -9 -23 -9h-64c-9.33301 0 -17 3 -23 9s-9 13.667 -9 23v32c-58.667 0 -110.834 17.833 -156.501 53.5s-75.834 81.167 -90.501 136.5l-185 33l-20 49c-40 98.667 -60 203.334 -60 314.001
c0 100.667 22.333 197.667 67 291s104.334 174.166 179.001 242.499s163.334 122.833 266.001 163.5s209.334 61 320.001 61s217.334 -20.333 320.001 -61s191.334 -95.167 266.001 -163.5s134.334 -149.166 179.001 -242.499s67 -190.333 67 -291z" />
    <glyph glyph-name="volume_off" unicode="&#xf026;" horiz-adv-x="768" 
d="M768 1184v-1088c0 -17.333 -6.33301 -32.333 -19 -45s-27.667 -19 -45 -19s-32.333 6.33301 -45 19l-333 333h-262c-17.333 0 -32.333 6.33301 -45 19s-19 27.667 -19 45v384c-0 17.333 6.33301 32.333 19 45s27.667 19 45 19h262l333 333c12.667 12.667 27.667 19 45 19
s32.333 -6.33301 45 -19s19 -27.667 19 -45z" />
    <glyph glyph-name="volume_down" unicode="&#xf027;" horiz-adv-x="1152" 
d="M768 1184v-1088c0 -17.333 -6.33301 -32.333 -19 -45s-27.667 -19 -45 -19s-32.333 6.33301 -45 19l-333 333h-262c-17.333 0 -32.333 6.33301 -45 19s-19 27.667 -19 45v384c-0 17.333 6.33301 32.333 19 45s27.667 19 45 19h262l333 333c12.667 12.667 27.667 19 45 19
s32.333 -6.33301 45 -19s19 -27.667 19 -45zM1152 640c0 -50.667 -14.167 -97.8301 -42.5 -141.497s-65.833 -74.834 -112.5 -93.501c-6.66699 -3.33301 -15 -5 -25 -5c-17.333 0 -32.333 6.16699 -45 18.5s-19 27.5 -19 45.5c0 14 4 25.833 12 35.5s17.667 18 29 25
s22.666 14.667 33.999 23s21 20.166 29 35.499s12 34.333 12 57s-4 41.667 -12 57s-17.667 27.166 -29 35.499s-22.666 16 -33.999 23s-21 15.333 -29 25s-12 21.5 -12 35.5c0 18 6.33301 33.167 19 45.5s27.667 18.5 45 18.5c10 0 18.333 -1.66699 25 -5
c46.667 -18 84.167 -49 112.5 -93s42.5 -91.333 42.5 -142z" />
    <glyph glyph-name="volume_up" unicode="&#xf028;" horiz-adv-x="1664" 
d="M768 1184v-1088c0 -17.333 -6.33301 -32.333 -19 -45s-27.667 -19 -45 -19s-32.333 6.33301 -45 19l-333 333h-262c-17.333 0 -32.333 6.33301 -45 19s-19 27.667 -19 45v384c-0 17.333 6.33301 32.333 19 45s27.667 19 45 19h262l333 333c12.667 12.667 27.667 19 45 19
s32.333 -6.33301 45 -19s19 -27.667 19 -45zM1152 640c0 -50.667 -14.167 -97.8301 -42.5 -141.497s-65.833 -74.834 -112.5 -93.501c-6.66699 -3.33301 -15 -5 -25 -5c-17.333 0 -32.333 6.16699 -45 18.5s-19 27.5 -19 45.5c0 14 4 25.833 12 35.5s17.667 18 29 25
s22.666 14.667 33.999 23s21 20.166 29 35.499s12 34.333 12 57s-4 41.667 -12 57s-17.667 27.166 -29 35.499s-22.666 16 -33.999 23s-21 15.333 -29 25s-12 21.5 -12 35.5c0 18 6.33301 33.167 19 45.5s27.667 18.5 45 18.5c10 0 18.333 -1.66699 25 -5
c46.667 -18 84.167 -49 112.5 -93s42.5 -91.333 42.5 -142zM1408 640.004c0 -102 -28.334 -196.167 -85.001 -282.5s-131.667 -149.166 -225 -188.499c-8.66699 -3.33301 -17 -5 -25 -5c-18 0 -33.333 6.33301 -46 19s-19 27.667 -19 45c0 26 13 45.667 39 59
c37.333 19.333 62.666 34 75.999 44c49.333 36 87.833 81.167 115.5 135.5s41.5 112.166 41.5 173.499s-13.833 119.166 -41.5 173.499s-66.167 99.5 -115.5 135.5c-13.333 10 -38.666 24.667 -75.999 44c-26 13.333 -39 33 -39 59c0 17.333 6.33301 32.333 19 45
s27.667 19 45 19c8.66699 0 17.334 -1.66699 26.001 -5c93.333 -39.333 168.333 -102.166 225 -188.499s85 -180.5 85 -282.5zM1664 640.004c0 -153.333 -42.333 -294.17 -127 -422.503s-197.334 -222.833 -338.001 -283.5c-8.66699 -3.33301 -17.334 -5 -26.001 -5
c-17.333 0 -32.333 6.33301 -45 19s-19 27.667 -19 45c0 24 13 43.667 39 59c4.66699 2.66699 12.167 6.16699 22.5 10.5s17.833 7.83301 22.5 10.5c30.667 16.667 58 33.667 82 51c82 60.667 146 136.334 192 227.001s69 187 69 289s-23 198.333 -69 289
s-110 166.334 -192 227.001c-24 17.333 -51.333 34.333 -82 51c-4.66699 2.66699 -12.167 6.16699 -22.5 10.5s-17.833 7.83301 -22.5 10.5c-26 15.333 -39 35 -39 59c0 17.333 6.33301 32.333 19 45s27.667 19 45 19c8.66699 0 17.334 -1.66699 26.001 -5
c140.667 -60.667 253.334 -155.167 338.001 -283.5s127 -269.166 127 -422.499z" />
    <glyph glyph-name="qrcode" unicode="&#xf029;" horiz-adv-x="1408" 
d="M384 384v-128h-128v128h128zM384 1152v-128h-128v128h128zM1152 1152v-128h-128v128h128zM128 129h384v383h-384v-383zM128 896h384v384h-384v-384zM896 896h384v384h-384v-384zM640 640v-640h-640v640h640zM1152 128v-128h-128v128h128zM1408 128v-128h-128v128h128z
M1408 640v-384h-384v128h-128v-384h-128v640h384v-128h128v128h128zM640 1408v-640h-640v640h640zM1408 1408v-640h-640v640h640z" />
    <glyph glyph-name="barcode" unicode="&#xf02a;" horiz-adv-x="1792" 
d="M63 0h-63v1408h63v-1408zM126 1h-32v1407h32v-1407zM220 1h-31v1407h31v-1407zM377 1h-31v1407h31v-1407zM534 1h-62v1407h62v-1407zM660 1h-31v1407h31v-1407zM723 1h-31v1407h31v-1407zM786 1h-31v1407h31v-1407zM943 1h-63v1407h63v-1407zM1100 1h-63v1407h63v-1407z
M1226 1h-63v1407h63v-1407zM1352 1h-63v1407h63v-1407zM1446 1h-63v1407h63v-1407zM1635 1h-94v1407h94v-1407zM1698 1h-32v1407h32v-1407zM1792 0h-63v1408h63v-1408z" />
    <glyph glyph-name="tag" unicode="&#xf02b;" 
d="M448 1088c0 35.333 -12.5 65.5 -37.5 90.5s-55.167 37.5 -90.5 37.5s-65.5 -12.5 -90.5 -37.5s-37.5 -55.167 -37.5 -90.5s12.5 -65.5 37.5 -90.5s55.167 -37.5 90.5 -37.5s65.5 12.5 90.5 37.5s37.5 55.167 37.5 90.5zM1515 512c0 -35.333 -12.333 -65.334 -37 -90.001
l-491 -492c-26 -24.667 -56.333 -37 -91 -37c-35.333 0 -65.333 12.333 -90 37l-715 716c-25.333 24.667 -46.833 58.334 -64.5 101.001s-26.5 81.667 -26.5 117v416c0 34.667 12.667 64.667 38 90s55.333 38 90 38h416c35.333 0 74.333 -8.83301 117 -26.5
s76.667 -39.167 102 -64.5l715 -714c24.667 -26 37 -56.333 37 -91z" />
    <glyph glyph-name="tags" unicode="&#xf02c;" horiz-adv-x="1920" 
d="M448 1088c0 35.333 -12.5 65.5 -37.5 90.5s-55.167 37.5 -90.5 37.5s-65.5 -12.5 -90.5 -37.5s-37.5 -55.167 -37.5 -90.5s12.5 -65.5 37.5 -90.5s55.167 -37.5 90.5 -37.5s65.5 12.5 90.5 37.5s37.5 55.167 37.5 90.5zM1515 512c0 -35.333 -12.333 -65.334 -37 -90.001
l-491 -492c-26 -24.667 -56.333 -37 -91 -37c-35.333 0 -65.333 12.333 -90 37l-715 716c-25.333 24.667 -46.833 58.334 -64.5 101.001s-26.5 81.667 -26.5 117v416c0 34.667 12.667 64.667 38 90s55.333 38 90 38h416c35.333 0 74.333 -8.83301 117 -26.5
s76.667 -39.167 102 -64.5l715 -714c24.667 -26 37 -56.333 37 -91zM1899 511.999c0 -35.333 -12.333 -65.333 -37 -90l-491 -492c-26 -24.667 -56.333 -37 -91 -37c-24 0 -43.667 4.66699 -59 14s-33 24.333 -53 45l470 470c24.667 24.667 37 54.667 37 90
c0 34.667 -12.333 65 -37 91l-715 714c-25.333 25.333 -59.333 46.833 -102 64.5s-81.667 26.5 -117 26.5h224c35.333 0 74.333 -8.83301 117 -26.5s76.667 -39.167 102 -64.5l715 -714c24.667 -26 37 -56.333 37 -91z" />
    <glyph glyph-name="book" unicode="&#xf02d;" horiz-adv-x="1664" 
d="M1639 1058c26.667 -38 32.6641 -80.9961 17.9971 -128.996l-275 -906c-12.667 -42.667 -38.167 -78.5 -76.5 -107.5s-79.166 -43.5 -122.499 -43.5h-923c-51.333 0 -100.833 17.833 -148.5 53.5s-80.834 79.5 -99.501 131.5c-16 44.667 -16.667 87 -2 127
c0 2.66699 1 11.667 3 27s3.33301 27.666 4 36.999c0.666992 5.33301 -0.333008 12.5 -3 21.5s-3.66699 15.5 -3 19.5c1.33301 7.33301 4 14.333 8 21s9.5 14.5 16.5 23.5s12.5 16.833 16.5 23.5c15.333 25.333 30.333 55.833 45 91.5s24.667 66.167 30 91.5
c2 6.66699 2.16699 16.667 0.5 30s-1.83398 22.666 -0.500977 27.999c2 7.33301 7.66699 16.666 17 27.999s15 19 17 23c14 24 28 54.667 42 92s22.333 67.333 25 90c0.666992 6 -0.166016 16.667 -2.49902 32s-2.16602 24.666 0.500977 27.999
c2.66699 8.66699 10 18.834 22 30.501s19.333 19.167 22 22.5c12.667 17.333 26.834 45.5 42.501 84.5s24.834 71.167 27.501 96.5c0.666992 5.33301 -0.333008 13.833 -3 25.5s-3.33398 20.5 -2.00098 26.5c1.33301 5.33301 4.33301 11.333 9 18s10.667 14.334 18 23.001
s13 15.667 17 21c5.33301 8 10.833 18.167 16.5 30.5s10.667 24 15 35s9.66602 23 15.999 36s12.833 23.667 19.5 32s15.5 16.166 26.5 23.499s23 11.166 36 11.499s28.833 -1.5 47.5 -5.5l-1 -3c25.333 6 42.333 9 51 9h761c49.333 0 87.333 -18.667 114 -56
s32.667 -80.666 18 -129.999l-274 -906c-24 -79.333 -47.833 -130.5 -71.5 -153.5s-66.5 -34.5 -128.5 -34.5h-869c-18 0 -30.667 -5 -38 -15c-7.33301 -10.667 -7.66602 -25 -0.999023 -43c16 -46.667 64 -70 144 -70h923c19.333 0 38 5.16699 56 15.5
s29.667 24.166 35 41.499l300 987c4.66699 14.667 6.33398 33.667 5.00098 57c25.333 -10 45 -24.333 59 -43zM574.997 1056c-2.66699 -8.66699 -2 -16.167 2 -22.5s10.667 -9.5 20 -9.5h608c8.66699 0 17.167 3.16699 25.5 9.5s13.833 13.833 16.5 22.5l21 64
c2.66699 8.66699 2 16.167 -2 22.5s-10.667 9.5 -20 9.5h-608c-8.66699 0 -17.167 -3.16699 -25.5 -9.5s-13.833 -13.833 -16.5 -22.5zM491.997 800.004c-2.66699 -8.66699 -2 -16.167 2 -22.5s10.667 -9.5 20 -9.5h608c8.66699 0 17.167 3.16699 25.5 9.5
s13.833 13.833 16.5 22.5l21 64c2.66699 8.66699 2 16.167 -2 22.5s-10.667 9.5 -20 9.5h-608c-8.66699 0 -17.167 -3.16699 -25.5 -9.5s-13.833 -13.833 -16.5 -22.5z" />
    <glyph glyph-name="bookmark" unicode="&#xf02e;" horiz-adv-x="1280" 
d="M1164 1408c15.333 0 30.001 -3 44.001 -9c22 -8.66699 39.5 -22.334 52.5 -41.001s19.5 -39.334 19.5 -62.001v-1289c0 -22.667 -6.5 -43.334 -19.5 -62.001s-30.5 -32.334 -52.5 -41.001c-12.667 -5.33301 -27.334 -8 -44.001 -8c-32 0 -59.667 10.667 -83 32l-441 424
l-441 -424c-24 -22 -51.667 -33 -83 -33c-15.333 0 -30 3 -44 9c-22 8.66699 -39.5 22.334 -52.5 41.001s-19.5 39.334 -19.5 62.001v1289c0 22.667 6.5 43.334 19.5 62.001s30.5 32.334 52.5 41.001c14 6 28.667 9 44 9h1048z" />
    <glyph glyph-name="print" unicode="&#xf02f;" horiz-adv-x="1664" 
d="M384 0h896v256h-896v-256zM384 640l896.001 -0.000976562v384h-160c-26.667 0 -49.334 9.33301 -68.001 28s-28 41.334 -28 68.001v160h-640v-640zM1536 575.999c0 17.333 -6.33301 32.333 -19 45s-27.667 19 -45 19s-32.333 -6.33301 -45 -19s-19 -27.667 -19 -45
s6.33301 -32.333 19 -45s27.667 -19 45 -19s32.333 6.33301 45 19s19 27.667 19 45zM1664 575.999l-0.000976562 -416.001c0 -8.66699 -3.16699 -16.167 -9.5 -22.5s-13.833 -9.5 -22.5 -9.5h-224v-160c0 -26.667 -9.33301 -49.334 -28 -68.001s-41.334 -28 -68.001 -28
h-960c-26.667 0 -49.334 9.33301 -68.001 28s-28 41.334 -28 68.001v160h-224c-8.66699 0 -16.167 3.16699 -22.5 9.5s-9.5 13.833 -9.5 22.5v416c0 52.667 18.833 97.834 56.5 135.501s82.834 56.5 135.501 56.5h64v544c0 26.667 9.33301 49.334 28 68.001
s41.334 28 68.001 28h672c26.667 0 56 -6.66699 88 -20s57.333 -29.333 76 -48l152 -152c18.667 -18.667 34.667 -44 48 -76s20 -61.333 20 -88v-256h64c52.667 0 97.834 -18.833 135.501 -56.5s56.5 -82.834 56.5 -135.501z" />
    <glyph glyph-name="camera" unicode="&#xf030;" horiz-adv-x="1920" 
d="M960 864c79.333 0 147.166 -28.167 203.499 -84.5s84.5 -124.166 84.5 -203.499s-28.167 -147.166 -84.5 -203.499s-124.166 -84.5 -203.499 -84.5s-147.166 28.167 -203.499 84.5s-84.5 124.166 -84.5 203.499s28.167 147.166 84.5 203.499s124.166 84.5 203.499 84.5z
M1664 1280c70.667 0 130.998 -25 180.998 -75s75 -110.333 75 -181v-896c0 -70.667 -25 -131 -75 -181s-110.333 -75 -181 -75h-1408c-70.667 0 -131 25 -181 75s-75 110.333 -75 181v896c0 70.667 25 131 75 181s110.333 75 181 75h224l51 136
c12.667 32.667 35.834 60.834 69.501 84.501s68.167 35.5 103.5 35.5h512c35.333 0 69.833 -11.833 103.5 -35.5s56.834 -51.834 69.501 -84.501l51 -136h224zM959.998 128c123.333 0 228.833 43.833 316.5 131.5s131.5 193.167 131.5 316.5s-43.833 228.833 -131.5 316.5
s-193.167 131.5 -316.5 131.5s-228.833 -43.833 -316.5 -131.5s-131.5 -193.167 -131.5 -316.5s43.833 -228.833 131.5 -316.5s193.167 -131.5 316.5 -131.5z" />
    <glyph glyph-name="font" unicode="&#xf031;" horiz-adv-x="1664" 
d="M725 977l-170.001 -449.998c48.667 -0.666992 99.834 -1.33398 153.501 -2.00098l119 -1.5c25.667 -0.333008 43.167 -0.5 52.5 -0.5l29 2c-21.333 63.333 -52 143.666 -92 240.999c-35.333 88 -66 158.333 -92 211zM20.999 -127.998h-21l2 79
c14.667 4.66699 41.334 10.667 80.001 18c59.333 10.667 96 21 110 31c13.333 10.667 29.333 33.334 48 68.001l237 616l280 724h75h53l11 -21l205 -480c68.667 -161.333 110 -260.333 124 -297c26 -68 58 -146.333 96 -235c17.333 -38.667 39 -93.334 65 -164.001
c16 -44.667 37.667 -94.334 65 -149.001c14.667 -32.667 26.334 -51.667 35.001 -57c14.667 -12.667 37.667 -20.334 69 -23.001c31.333 -4 65.666 -13 102.999 -27c4 -26 6 -45 6 -57c0 -9.33301 -0.333008 -18 -1 -26c-53.333 0 -117.333 2.66699 -192 8
c-62 5.33301 -125 8 -189 8c-52.667 0 -97.667 -0.666992 -135 -2l-200 -11l-58 -2c0 30 1.33301 56 4 78l131 28c37.333 8.66699 60 16.334 68 23.001c8 8 12 17 12 27s-2 20.667 -6 32l-47 114l-92 228l-450 2c-19.333 -43.333 -54 -134.666 -104 -273.999
c-15.333 -42.667 -23 -70.667 -23 -84c0 -20.667 5.66699 -35 17 -43c17.333 -14 51.666 -24.667 102.999 -32c2 0 6.5 -0.666992 13.5 -2s17 -3 30 -5l40.5 -6c0.666992 -18.667 1 -38 1 -58c0 -11.333 -0.666992 -20.333 -2 -27c-44 0 -160.333 6.66699 -349 20l-48 -8
c-54 -9.33301 -109.667 -14 -167 -14z" />
    <glyph glyph-name="bold" unicode="&#xf032;" horiz-adv-x="1408" 
d="M555 15c50.667 -21.333 97.3311 -32 139.998 -32c87.333 0 159.333 13.667 216 41s97.334 65 122.001 113c25.333 46.667 38 107 38 181c0 76 -13.667 136 -41 180c-38.667 62.667 -85.667 104.667 -141 126c-53.333 21.333 -135.666 32 -246.999 32
c-49.333 0 -83 -3.33301 -101 -10v-144l-1 -173l3 -270c0 -10 4 -24.667 12 -44zM540.997 761c28.667 -4.66699 65 -6.99902 109 -6.99902c116.667 0 204.667 21.667 264 65s89 118 89 224c0 74.667 -28.333 137 -85 187c-56 50 -141 75 -255 75
c-34.667 0 -78 -4.33301 -130 -13c0 -29.333 0.666992 -55 2 -77c4.66699 -81.333 6.66699 -174.333 6 -279l-1 -98c0 -28.667 0.333008 -54.334 1 -77.001zM-0.00292969 -127.999l2 94.0029c30 6 52.667 10 68 12c51.333 8 92.333 18.333 123 31c11.333 18 18.333 35 21 51
c6 44 9 108.667 9 194l-2 497c-3.33301 170.667 -6.33301 305.334 -9 404.001c-0.666992 58 -4.33398 94.333 -11.001 109c-0.666992 2.66699 -4.66699 6.66699 -12 12c-12 8 -35 13 -69 15c-20 1.33301 -58 5.66602 -114 12.999l-4 83l260 6l380 13l45 1
c3.33301 0 8 0.166992 14 0.5s10.667 0.5 14 0.5c0.666992 0 7.83398 -0.166992 21.501 -0.5s27.167 -0.5 40.5 -0.5h74c58.667 0 122.334 -9 191.001 -27c28.667 -8.66699 60.667 -21.667 96 -39c38 -19.333 72 -44.666 102 -75.999c29.333 -31.333 51 -66 65 -104
s21 -78.667 21 -122c0 -46.667 -10.667 -89.334 -32 -128.001s-53 -73.667 -95 -105c-17.333 -13.333 -67.333 -39 -150 -77c118 -27.333 207 -76 267 -146c61.333 -70.667 92 -149.334 92 -236.001c0 -50.667 -9.66699 -104.334 -29 -161.001
c-14 -41.333 -37.667 -80.333 -71 -117c-44 -48 -90.667 -84 -140 -108c-48.667 -24 -116.334 -44 -203.001 -60c-54.667 -10 -120.667 -13.667 -198 -11l-197 4c-56 1.33301 -155.333 -2.33398 -298 -11.001c-22 -2 -112.667 -5.66699 -272 -11z" />
    <glyph glyph-name="italic" unicode="&#xf033;" horiz-adv-x="1024" 
d="M0 -126l17 84.998l77 20c50.667 12.667 89.334 25.667 116.001 39c19.333 24.667 33 58.334 41 101.001l27 139l56 268l12 64c5.33301 29.333 11 57.5 17 84.5s11.333 49.333 16 67l12.5 46.5c3.66699 13.333 6.66699 23.5 9 30.5s3.5 10.833 3.5 11.5l29 157l16 63
l22 135l8 50v38c-27.333 14.667 -75.333 24 -144 28c-18.667 1.33301 -31.334 2.66602 -38.001 3.99902l19 103l317 -14c26 -1.33301 50.333 -2 73 -2c44 0 115.333 3 214 9c22 1.33301 44.667 2.83301 68 4.5s35.333 2.5 36 2.5
c-1.33301 -12.667 -3.33301 -25.334 -6 -38.001c-4.66699 -19.333 -9 -36.333 -13 -51c-36.667 -12.667 -73 -23 -109 -31c-42.667 -10.667 -76.334 -21 -101.001 -31c-8 -20.667 -16 -50 -24 -88c-6 -29.333 -10.333 -56.666 -13 -81.999l-66 -306l-61 -311l-38 -158
l-43 -235l-12 -45c-1.33301 -4.66699 -1 -13.667 1 -27c42.667 -10 82.334 -17 119.001 -21c24 -3.33301 46 -6.66602 66 -9.99902c-0.666992 -19.333 -3 -38.666 -7 -57.999c-4.66699 -20.667 -7.66699 -34.334 -9 -41.001c-12 0 -19.667 -0.333008 -23 -1
c-16 -1.33301 -30 -2 -42 -2c-6 0 -15.333 1 -28 3c-12.667 2.66699 -61 8.33398 -145 17.001l-198 2c-27.333 0.666992 -85.333 -3 -174 -11c-49.333 -4.66699 -82 -7.66699 -98 -9z" />
    <glyph glyph-name="text_height" unicode="&#xf034;" horiz-adv-x="1792" 
d="M81 1407l54.001 -27c13.333 -3.33301 83.666 -5 210.999 -5h130l19 3l115 1l215 -1h293l34 -2c9.33301 -0.666992 18.666 1.66602 27.999 6.99902s16.333 10.666 21 15.999l7 8l42 1c10 0 19.333 -0.333008 28 -1v-104.5c0 -52.333 0.333008 -96.166 1 -131.499l1 -100
l-1 -58c0 -21.333 -1.33301 -38.333 -4 -51c-26 -10 -48.667 -16 -68 -18c-16.667 28.667 -34.667 71.334 -54 128.001c-5.33301 16 -10.5 36.833 -15.5 62.5s-8.83301 47.5 -11.5 65.5s-4.66699 27.667 -6 29c-8.66699 10 -17.667 16.333 -27 19
c-4.66699 1.33301 -18.834 2 -42.501 2s-58.167 -0.333008 -103.5 -1s-82.333 -1 -111 -1c-22.667 0 -45 -1.66699 -67 -5c-6.66699 -64.667 -9.33398 -110 -8.00098 -136l1 -152v-332l3 -359l-1 -147c-0.666992 -30.667 3 -59 11 -85
c32.667 -16.667 62.334 -27.334 89.001 -32.001c1.33301 0 7.33301 -1.66699 18 -5s25.334 -7.66602 44.001 -12.999l43 -12c20 -5.33301 36.667 -11.333 50 -18c3.33301 -30 5 -46.667 5 -50c0 -6.66699 -1 -16.334 -3 -29.001c-9.33301 -0.666992 -20.666 -1 -33.999 -1
c-73.333 0 -135.666 3.33301 -186.999 10c-48 5.33301 -127.333 8 -238 8c-58.667 0 -136.334 -4.66699 -233.001 -14c-32 -2.66699 -55.333 -4 -70 -4c-1.33301 14.667 -2 23.334 -2 26.001l-1 26v9c14 22 40.333 38.333 79 49c92.667 25.333 145.667 42 159 50
c6 14 10 32.667 12 56c5.33301 128 7.33301 272.333 6 433l-5 428c-0.666992 41.333 -0.833984 80.833 -0.500977 118.5s0.5 71.834 0.5 102.501s-0.666992 49.667 -2 57s-3.33301 12.333 -6 15c-4 3.33301 -8.66699 5.33301 -14 6c-25.333 4 -74.666 6 -147.999 6
c-28.667 0 -62 -4.5 -100 -13.5s-62.333 -17.167 -73 -24.5c-8.66699 -6 -16 -17 -22 -33s-13.333 -41 -22 -75s-16.667 -62 -24 -84c-4 -12.667 -10.5 -23.334 -19.5 -32.001s-15.833 -13 -20.5 -13c-29.333 18 -48 32.667 -56 44v297v86zM1744 128
c22 0 36 -6.16699 42 -18.5s2.33301 -27.166 -11 -44.499l-126 -162c-13.333 -17.333 -29.666 -26 -48.999 -26s-35.666 8.66699 -48.999 26l-126 162c-13.333 17.333 -17 32.166 -11 44.499s20 18.5 42 18.5h80v1024h-80c-22 0 -36 6.16699 -42 18.5
s-2.33301 27.166 11 44.499l126 162c13.333 17.333 29.666 26 48.999 26s35.666 -8.66699 48.999 -26l126 -162c13.333 -17.333 17 -32.166 11 -44.499s-20 -18.5 -42 -18.5h-80v-1024h80z" />
    <glyph glyph-name="text_width" unicode="&#xf035;" 
d="M81 1407l53.999 -26.999c13.333 -3.33301 83.666 -5 210.999 -5h130l19 3l115 1l446 -1h318l34 -2c9.33301 -0.666992 18.666 1.66602 27.999 6.99902s16.333 10.666 21 15.999l7 8l42 1c10 0 19.333 -0.333008 28 -1v-104.5c0 -52.333 0.333008 -96.166 1 -131.499
l1 -100l-1 -58c0 -21.333 -1.33301 -38.333 -4 -51c-26 -10 -48.667 -16 -68 -18c-16.667 28.667 -34.667 71.334 -54 128.001c-5.33301 16 -10.5 36.833 -15.5 62.5s-8.83301 47.5 -11.5 65.5s-4.66699 27.667 -6 29c-8.66699 10 -17.667 16.333 -27 19
c-4.66699 1.33301 -24.167 2 -58.5 2s-80.5 -0.333008 -138.5 -1s-100.667 -1 -128 -1c-62.667 0 -105 -1.66699 -127 -5c-6.66699 -64.667 -9.33398 -110 -8.00098 -136l1 -152v52l3 -359l-1 -147c-0.666992 -30.667 3 -59 11 -85
c32.667 -16.667 62.334 -27.334 89.001 -32.001c1.33301 0 7.33301 -1.66699 18 -5s25.334 -7.66602 44.001 -12.999l43 -12c20 -5.33301 36.667 -11.333 50 -18c3.33301 -30 5 -46.667 5 -50c0 -6.66699 -1 -16.334 -3 -29.001c-9.33301 -0.666992 -20.666 -1 -33.999 -1
c-73.333 0 -135.666 3.33301 -186.999 10c-48 5.33301 -127.333 8 -238 8c-54.667 0 -132.334 -4.33301 -233.001 -13c-30 -3.33301 -53.333 -5 -70 -5c-1.33301 14.667 -2 23.334 -2 26.001l-1 26v9c14 22 40.333 38.333 79 49c92.667 25.333 145.667 42 159 50
c6 14 10 32.667 12 56c4 91.333 6 235.666 6 432.999l-5 44c0 176.667 -0.666992 269.334 -2 278.001c-1.33301 7.33301 -3.33301 12.333 -6 15c-4 3.33301 -8.66699 5.33301 -14 6c-25.333 4 -74.666 6 -147.999 6c-33.333 0 -89.5 -4.66699 -168.5 -14
s-123.167 -17.333 -132.5 -24c-8.66699 -6 -16 -17 -22 -33s-13.333 -41 -22 -75s-16.667 -62 -24 -84c-4 -12.667 -10.5 -23.334 -19.5 -32.001s-15.833 -13 -20.5 -13c-29.333 18 -48 32.667 -56 44v297v86zM1505 113.001c17.333 -13.333 26 -29.666 26 -48.999
s-8.66699 -35.666 -26 -48.999l-162 -126c-17.333 -13.333 -32.166 -17 -44.499 -11s-18.5 20 -18.5 42v80h-1024v-80c0 -22 -6.16699 -36 -18.5 -42s-27.166 -2.33301 -44.499 11l-162 126c-17.333 13.333 -26 29.666 -26 48.999s8.66699 35.666 26 48.999l162 126
c17.333 13.333 32.166 17 44.499 11s18.5 -20 18.5 -42v-80h1024v80c0 22 6.16699 36 18.5 42s27.166 2.33301 44.499 -11z" />
    <glyph glyph-name="align_left" unicode="&#xf036;" horiz-adv-x="1792" 
d="M1792 192v-128c0 -17.333 -6.33301 -32.333 -19 -45s-27.667 -19 -45 -19h-1664c-17.333 -0 -32.333 6.33301 -45 19s-19 27.667 -19 45v128c-0 17.333 6.33301 32.333 19 45s27.667 19 45 19h1664c17.333 0 32.333 -6.33301 45 -19s19 -27.667 19 -45zM1408 576v-128
c0 -17.333 -6.33301 -32.333 -19 -45s-27.667 -19 -45 -19h-1280c-17.333 0 -32.333 6.33301 -45 19s-19 27.667 -19 45v128c-0 17.333 6.33301 32.333 19 45s27.667 19 45 19h1280c17.333 0 32.333 -6.33301 45 -19s19 -27.667 19 -45zM1664 960v-128
c0 -17.333 -6.33301 -32.333 -19 -45s-27.667 -19 -45 -19h-1536c-17.333 0 -32.333 6.33301 -45 19s-19 27.667 -19 45v128c-0 17.333 6.33301 32.333 19 45s27.667 19 45 19h1536c17.333 0 32.333 -6.33301 45 -19s19 -27.667 19 -45zM1280 1344v-128
c0 -17.333 -6.33301 -32.333 -19 -45s-27.667 -19 -45 -19h-1152c-17.333 0 -32.333 6.33301 -45 19s-19 27.667 -19 45v128c-0 17.333 6.33301 32.333 19 45s27.667 19 45 19h1152c17.333 0 32.333 -6.33301 45 -19s19 -27.667 19 -45z" />
    <glyph glyph-name="align_center" unicode="&#xf037;" horiz-adv-x="1792" 
d="M1792 192v-128c0 -17.333 -6.33301 -32.333 -19 -45s-27.667 -19 -45 -19h-1664c-17.333 -0 -32.333 6.33301 -45 19s-19 27.667 -19 45v128c-0 17.333 6.33301 32.333 19 45s27.667 19 45 19h1664c17.333 0 32.333 -6.33301 45 -19s19 -27.667 19 -45zM1408 576v-128
c0 -17.333 -6.33301 -32.333 -19 -45s-27.667 -19 -45 -19h-896c-17.333 0 -32.333 6.33301 -45 19s-19 27.667 -19 45v128c0 17.333 6.33301 32.333 19 45s27.667 19 45 19h896c17.333 0 32.333 -6.33301 45 -19s19 -27.667 19 -45zM1664 960v-128
c0 -17.333 -6.33301 -32.333 -19 -45s-27.667 -19 -45 -19h-1408c-17.333 0 -32.333 6.33301 -45 19s-19 27.667 -19 45v128c0 17.333 6.33301 32.333 19 45s27.667 19 45 19h1408c17.333 0 32.333 -6.33301 45 -19s19 -27.667 19 -45zM1280 1344v-128
c0 -17.333 -6.33301 -32.333 -19 -45s-27.667 -19 -45 -19h-640c-17.333 0 -32.333 6.33301 -45 19s-19 27.667 -19 45v128c0 17.333 6.33301 32.333 19 45s27.667 19 45 19h640c17.333 0 32.333 -6.33301 45 -19s19 -27.667 19 -45z" />
    <glyph glyph-name="align_right" unicode="&#xf038;" horiz-adv-x="1792" 
d="M1792 192v-128c0 -17.333 -6.33301 -32.333 -19 -45s-27.667 -19 -45 -19h-1664c-17.333 -0 -32.333 6.33301 -45 19s-19 27.667 -19 45v128c-0 17.333 6.33301 32.333 19 45s27.667 19 45 19h1664c17.333 0 32.333 -6.33301 45 -19s19 -27.667 19 -45zM1792 576v-128
c0 -17.333 -6.33301 -32.333 -19 -45s-27.667 -19 -45 -19h-1280c-17.333 0 -32.333 6.33301 -45 19s-19 27.667 -19 45v128c0 17.333 6.33301 32.333 19 45s27.667 19 45 19h1280c17.333 0 32.333 -6.33301 45 -19s19 -27.667 19 -45zM1792 960v-128
c0 -17.333 -6.33301 -32.333 -19 -45s-27.667 -19 -45 -19h-1536c-17.333 0 -32.333 6.33301 -45 19s-19 27.667 -19 45v128c0 17.333 6.33301 32.333 19 45s27.667 19 45 19h1536c17.333 0 32.333 -6.33301 45 -19s19 -27.667 19 -45zM1792 1344v-128
c0 -17.333 -6.33301 -32.333 -19 -45s-27.667 -19 -45 -19h-1152c-17.333 0 -32.333 6.33301 -45 19s-19 27.667 -19 45v128c0 17.333 6.33301 32.333 19 45s27.667 19 45 19h1152c17.333 0 32.333 -6.33301 45 -19s19 -27.667 19 -45z" />
    <glyph glyph-name="align_justify" unicode="&#xf039;" horiz-adv-x="1792" 
d="M1792 192v-128c0 -17.333 -6.33301 -32.333 -19 -45s-27.667 -19 -45 -19h-1664c-17.333 -0 -32.333 6.33301 -45 19s-19 27.667 -19 45v128c-0 17.333 6.33301 32.333 19 45s27.667 19 45 19h1664c17.333 0 32.333 -6.33301 45 -19s19 -27.667 19 -45zM1792 576v-128
c0 -17.333 -6.33301 -32.333 -19 -45s-27.667 -19 -45 -19h-1664c-17.333 0 -32.333 6.33301 -45 19s-19 27.667 -19 45v128c-0 17.333 6.33301 32.333 19 45s27.667 19 45 19h1664c17.333 0 32.333 -6.33301 45 -19s19 -27.667 19 -45zM1792 960v-128
c0 -17.333 -6.33301 -32.333 -19 -45s-27.667 -19 -45 -19h-1664c-17.333 0 -32.333 6.33301 -45 19s-19 27.667 -19 45v128c-0 17.333 6.33301 32.333 19 45s27.667 19 45 19h1664c17.333 0 32.333 -6.33301 45 -19s19 -27.667 19 -45zM1792 1344v-128
c0 -17.333 -6.33301 -32.333 -19 -45s-27.667 -19 -45 -19h-1664c-17.333 0 -32.333 6.33301 -45 19s-19 27.667 -19 45v128c-0 17.333 6.33301 32.333 19 45s27.667 19 45 19h1664c17.333 0 32.333 -6.33301 45 -19s19 -27.667 19 -45z" />
    <glyph glyph-name="list" unicode="&#xf03a;" horiz-adv-x="1792" 
d="M256 224v-192c0 -8.66699 -3.16699 -16.167 -9.5 -22.5s-13.833 -9.5 -22.5 -9.5h-192c-8.66699 0 -16.167 3.16699 -22.5 9.5s-9.5 13.833 -9.5 22.5v192c0 8.66699 3.16699 16.167 9.5 22.5s13.833 9.5 22.5 9.5h192c8.66699 0 16.167 -3.16699 22.5 -9.5
s9.5 -13.833 9.5 -22.5zM256 608v-192c0 -8.66699 -3.16699 -16.167 -9.5 -22.5s-13.833 -9.5 -22.5 -9.5h-192c-8.66699 0 -16.167 3.16699 -22.5 9.5s-9.5 13.833 -9.5 22.5v192c0 8.66699 3.16699 16.167 9.5 22.5s13.833 9.5 22.5 9.5h192
c8.66699 0 16.167 -3.16699 22.5 -9.5s9.5 -13.833 9.5 -22.5zM256 992v-192c0 -8.66699 -3.16699 -16.167 -9.5 -22.5s-13.833 -9.5 -22.5 -9.5h-192c-8.66699 0 -16.167 3.16699 -22.5 9.5s-9.5 13.833 -9.5 22.5v192c0 8.66699 3.16699 16.167 9.5 22.5
s13.833 9.5 22.5 9.5h192c8.66699 0 16.167 -3.16699 22.5 -9.5s9.5 -13.833 9.5 -22.5zM1792 224v-192c0 -8.66699 -3.16699 -16.167 -9.5 -22.5s-13.833 -9.5 -22.5 -9.5h-1344c-8.66699 0 -16.167 3.16699 -22.5 9.5s-9.5 13.833 -9.5 22.5v192
c0 8.66699 3.16699 16.167 9.5 22.5s13.833 9.5 22.5 9.5h1344c8.66699 0 16.167 -3.16699 22.5 -9.5s9.5 -13.833 9.5 -22.5zM256 1376v-192c0 -8.66699 -3.16699 -16.167 -9.5 -22.5s-13.833 -9.5 -22.5 -9.5h-192c-8.66699 0 -16.167 3.16699 -22.5 9.5
s-9.5 13.833 -9.5 22.5v192c0 8.66699 3.16699 16.167 9.5 22.5s13.833 9.5 22.5 9.5h192c8.66699 0 16.167 -3.16699 22.5 -9.5s9.5 -13.833 9.5 -22.5zM1792 608v-192c0 -8.66699 -3.16699 -16.167 -9.5 -22.5s-13.833 -9.5 -22.5 -9.5h-1344
c-8.66699 0 -16.167 3.16699 -22.5 9.5s-9.5 13.833 -9.5 22.5v192c0 8.66699 3.16699 16.167 9.5 22.5s13.833 9.5 22.5 9.5h1344c8.66699 0 16.167 -3.16699 22.5 -9.5s9.5 -13.833 9.5 -22.5zM1792 992v-192c0 -8.66699 -3.16699 -16.167 -9.5 -22.5
s-13.833 -9.5 -22.5 -9.5h-1344c-8.66699 0 -16.167 3.16699 -22.5 9.5s-9.5 13.833 -9.5 22.5v192c0 8.66699 3.16699 16.167 9.5 22.5s13.833 9.5 22.5 9.5h1344c8.66699 0 16.167 -3.16699 22.5 -9.5s9.5 -13.833 9.5 -22.5zM1792 1376v-192
c0 -8.66699 -3.16699 -16.167 -9.5 -22.5s-13.833 -9.5 -22.5 -9.5h-1344c-8.66699 0 -16.167 3.16699 -22.5 9.5s-9.5 13.833 -9.5 22.5v192c0 8.66699 3.16699 16.167 9.5 22.5s13.833 9.5 22.5 9.5h1344c8.66699 0 16.167 -3.16699 22.5 -9.5s9.5 -13.833 9.5 -22.5z" />
    <glyph glyph-name="indent_left" unicode="&#xf03b;" horiz-adv-x="1792" 
d="M384 992v-576c0 -8.66699 -3.16699 -16.167 -9.5 -22.5s-13.833 -9.5 -22.5 -9.5c-9.33301 0 -17 3 -23 9l-288 288c-6 6 -9 13.667 -9 23s3 17 9 23l288 288c6 6 13.667 9 23 9c8.66699 0 16.167 -3.16699 22.5 -9.5s9.5 -13.833 9.5 -22.5zM1792 224v-192
c0 -8.66699 -3.16699 -16.167 -9.5 -22.5s-13.833 -9.5 -22.5 -9.5h-1728c-8.66699 0 -16.167 3.16699 -22.5 9.5s-9.5 13.833 -9.5 22.5v192c0 8.66699 3.16699 16.167 9.5 22.5s13.833 9.5 22.5 9.5h1728c8.66699 0 16.167 -3.16699 22.5 -9.5s9.5 -13.833 9.5 -22.5z
M1792 608v-192c0 -8.66699 -3.16699 -16.167 -9.5 -22.5s-13.833 -9.5 -22.5 -9.5h-1088c-8.66699 0 -16.167 3.16699 -22.5 9.5s-9.5 13.833 -9.5 22.5v192c0 8.66699 3.16699 16.167 9.5 22.5s13.833 9.5 22.5 9.5h1088c8.66699 0 16.167 -3.16699 22.5 -9.5
s9.5 -13.833 9.5 -22.5zM1792 992v-192c0 -8.66699 -3.16699 -16.167 -9.5 -22.5s-13.833 -9.5 -22.5 -9.5h-1088c-8.66699 0 -16.167 3.16699 -22.5 9.5s-9.5 13.833 -9.5 22.5v192c0 8.66699 3.16699 16.167 9.5 22.5s13.833 9.5 22.5 9.5h1088
c8.66699 0 16.167 -3.16699 22.5 -9.5s9.5 -13.833 9.5 -22.5zM1792 1376v-192c0 -8.66699 -3.16699 -16.167 -9.5 -22.5s-13.833 -9.5 -22.5 -9.5h-1728c-8.66699 0 -16.167 3.16699 -22.5 9.5s-9.5 13.833 -9.5 22.5v192c0 8.66699 3.16699 16.167 9.5 22.5
s13.833 9.5 22.5 9.5h1728c8.66699 0 16.167 -3.16699 22.5 -9.5s9.5 -13.833 9.5 -22.5z" />
    <glyph glyph-name="indent_right" unicode="&#xf03c;" horiz-adv-x="1792" 
d="M352 704c0 -9.33301 -3 -17 -9 -23l-288 -288c-6 -6 -13.667 -9 -23 -9c-8.66699 0 -16.167 3.16699 -22.5 9.5s-9.5 13.833 -9.5 22.5v576c0 8.66699 3.16699 16.167 9.5 22.5s13.833 9.5 22.5 9.5c9.33301 0 17 -3 23 -9l288 -288c6 -6 9 -13.667 9 -23zM1792 224v-192
c0 -8.66699 -3.16699 -16.167 -9.5 -22.5s-13.833 -9.5 -22.5 -9.5h-1728c-8.66699 0 -16.167 3.16699 -22.5 9.5s-9.5 13.833 -9.5 22.5v192c0 8.66699 3.16699 16.167 9.5 22.5s13.833 9.5 22.5 9.5h1728c8.66699 0 16.167 -3.16699 22.5 -9.5s9.5 -13.833 9.5 -22.5z
M1792 608v-192c0 -8.66699 -3.16699 -16.167 -9.5 -22.5s-13.833 -9.5 -22.5 -9.5h-1088c-8.66699 0 -16.167 3.16699 -22.5 9.5s-9.5 13.833 -9.5 22.5v192c0 8.66699 3.16699 16.167 9.5 22.5s13.833 9.5 22.5 9.5h1088c8.66699 0 16.167 -3.16699 22.5 -9.5
s9.5 -13.833 9.5 -22.5zM1792 992v-192c0 -8.66699 -3.16699 -16.167 -9.5 -22.5s-13.833 -9.5 -22.5 -9.5h-1088c-8.66699 0 -16.167 3.16699 -22.5 9.5s-9.5 13.833 -9.5 22.5v192c0 8.66699 3.16699 16.167 9.5 22.5s13.833 9.5 22.5 9.5h1088
c8.66699 0 16.167 -3.16699 22.5 -9.5s9.5 -13.833 9.5 -22.5zM1792 1376v-192c0 -8.66699 -3.16699 -16.167 -9.5 -22.5s-13.833 -9.5 -22.5 -9.5h-1728c-8.66699 0 -16.167 3.16699 -22.5 9.5s-9.5 13.833 -9.5 22.5v192c0 8.66699 3.16699 16.167 9.5 22.5
s13.833 9.5 22.5 9.5h1728c8.66699 0 16.167 -3.16699 22.5 -9.5s9.5 -13.833 9.5 -22.5z" />
    <glyph glyph-name="facetime_video" unicode="&#xf03d;" horiz-adv-x="1792" 
d="M1792 1184v-1088c0 -28 -13 -47.667 -39 -59c-8.66699 -3.33301 -17 -5 -25 -5c-18 0 -33 6.33301 -45 19l-403 403v-166c0 -79.333 -28.167 -147.166 -84.5 -203.499s-124.166 -84.5 -203.499 -84.5h-704c-79.333 0 -147.166 28.167 -203.499 84.5
s-84.5 124.166 -84.5 203.499v704c0 79.333 28.167 147.166 84.5 203.499s124.166 84.5 203.499 84.5h704c79.333 0 147.166 -28.167 203.499 -84.5s84.5 -124.166 84.5 -203.499v-165l403 402c12 12.667 27 19 45 19c8 0 16.333 -1.66699 25 -5c26 -11.333 39 -31 39 -59z
" />
    <glyph glyph-name="picture" unicode="&#xf03e;" horiz-adv-x="1920" 
d="M640 960c0 -53.333 -18.667 -98.666 -56 -135.999s-82.666 -56 -135.999 -56s-98.666 18.667 -135.999 56s-56 82.666 -56 135.999s18.667 98.666 56 135.999s82.666 56 135.999 56s98.666 -18.667 135.999 -56s56 -82.666 56 -135.999zM1664 576v-448h-1408v192l320 320
l160 -160l512 512zM1760 1280h-1600c-8.66699 0 -16.167 -3.16699 -22.5 -9.5s-9.5 -13.833 -9.5 -22.5v-1216c0 -8.66699 3.16699 -16.167 9.5 -22.5s13.833 -9.5 22.5 -9.5h1600c8.66699 0 16.167 3.16699 22.5 9.5s9.5 13.833 9.5 22.5v1216
c0 8.66699 -3.16699 16.167 -9.5 22.5s-13.833 9.5 -22.5 9.5zM1920 1248v-1216c0 -44 -15.667 -81.667 -47 -113s-69 -47 -113 -47h-1600c-44 0 -81.667 15.667 -113 47s-47 69 -47 113v1216c0 44 15.667 81.667 47 113s69 47 113 47h1600c44 0 81.667 -15.667 113 -47
s47 -69 47 -113z" />
    <glyph glyph-name="pencil" unicode="&#xf040;" 
d="M363 0l91 91l-235 235l-91 -91v-107h128v-128h107zM886 928c0 14.667 -7.33301 22 -22 22c-6.66699 0 -12.334 -2.33301 -17.001 -7l-542 -542c-4.66699 -4.66699 -7 -10.334 -7 -17.001c0 -14.667 7.33301 -22 22 -22c6.66699 0 12.334 2.33301 17.001 7l542 542
c4.66699 4.66699 7 10.334 7 17.001zM832 1120l416 -416l-832 -832h-416v416zM1515 1024c0 -35.333 -12.332 -65.333 -36.999 -90l-166 -166l-416 416l166 165c24 25.333 54 38 90 38c35.333 0 65.666 -12.667 90.999 -38l235 -234c24.667 -26 37 -56.333 37 -91z" />
    <glyph glyph-name="map_marker" unicode="&#xf041;" horiz-adv-x="1024" 
d="M768 896c0 70.667 -25 131 -75 181s-110.333 75 -181 75s-131 -25 -181 -75s-75 -110.333 -75 -181s25 -131 75 -181s110.333 -75 181 -75s131 25 181 75s75 110.333 75 181zM1024 896c0 -72.667 -11 -132.334 -33 -179.001l-364 -774
c-10.667 -22 -26.5 -39.333 -47.5 -52s-43.5 -19 -67.5 -19s-46.5 6.33301 -67.5 19s-36.5 30 -46.5 52l-365 774c-22 46.667 -33 106.334 -33 179.001c0 141.333 50 262 150 362s220.667 150 362 150s262 -50 362 -150s150 -220.667 150 -362z" />
    <glyph glyph-name="adjust" unicode="&#xf042;" 
d="M768 96v1088c-98.667 0 -189.667 -24.333 -273 -73s-149.333 -114.667 -198 -198s-73 -174.333 -73 -273s24.333 -189.667 73 -273s114.667 -149.333 198 -198s174.333 -73 273 -73zM1536 640c0 -139.333 -34.333 -267.833 -103 -385.5
s-161.834 -210.834 -279.501 -279.501s-246.167 -103 -385.5 -103s-267.833 34.333 -385.5 103s-210.834 161.834 -279.501 279.501s-103 246.167 -103 385.5s34.333 267.833 103 385.5s161.834 210.834 279.501 279.501s246.167 103 385.5 103s267.833 -34.333 385.5 -103
s210.834 -161.834 279.501 -279.501s103 -246.167 103 -385.5z" />
    <glyph glyph-name="tint" unicode="&#xf043;" horiz-adv-x="1024" 
d="M512 384c0 24 -6.66699 47 -20 69c-0.666992 0.666992 -5.83398 8.16699 -15.501 22.5l-25.5 38c-7.33301 11 -15.666 25.667 -24.999 44s-16.333 35.166 -21 50.499c-2.66699 10.667 -9.66699 16 -21 16s-18.333 -5.33301 -21 -16
c-4.66699 -15.333 -11.667 -32.166 -21 -50.499s-17.666 -33 -24.999 -44l-25.5 -38c-9.66699 -14.333 -14.834 -21.833 -15.501 -22.5c-13.333 -22 -20 -45 -20 -69c0 -35.333 12.5 -65.5 37.5 -90.5s55.167 -37.5 90.5 -37.5s65.5 12.5 90.5 37.5s37.5 55.167 37.5 90.5z
M1024 512c0 -141.333 -50.0039 -262 -150.004 -362s-220.667 -150 -362 -150s-262 50 -362 150s-150 220.667 -150 362c0 96.667 27 188.334 81 275.001l62.5 90.5l101 151c29.667 46.333 62.834 105.666 99.501 177.999s64.334 139.5 83.001 201.5
c6 20 17.333 35.667 34 47s33.667 17 51 17s34.5 -5.66699 51.5 -17s28.167 -27 33.5 -47c18.667 -62 46.334 -129.167 83.001 -201.5s69.834 -131.666 99.501 -177.999l101 -151l62.5 -90.5c54 -84.667 81 -176.334 81 -275.001z" />
    <glyph glyph-name="edit" unicode="&#xf044;" horiz-adv-x="1792" 
d="M888 352l116 116l-152 152l-116 -116v-56h96v-96h56zM1328 1072c-10.667 10.667 -21.667 10.334 -33 -0.999023l-350 -350c-11.333 -11.333 -11.666 -22.333 -0.999023 -33s21.667 -10.334 33 0.999023l350 350c11.333 11.333 11.666 22.333 0.999023 33zM1408 478
l-0.000976562 -189.998c0 -79.333 -28.167 -147.166 -84.5 -203.499s-124.166 -84.5 -203.499 -84.5h-832c-79.333 0 -147.166 28.167 -203.499 84.5s-84.5 124.166 -84.5 203.499v832c0 79.333 28.167 147.166 84.5 203.499s124.166 84.5 203.499 84.5h832
c42 0 81 -8.33301 117 -25c10 -4.66699 16 -12.334 18 -23.001c2 -11.333 -1 -21 -9 -29l-49 -49c-9.33301 -9.33301 -20 -12 -32 -8c-15.333 4 -30.333 6 -45 6h-832c-44 0 -81.667 -15.667 -113 -47s-47 -69 -47 -113v-832c0 -44 15.667 -81.667 47 -113s69 -47 113 -47
h832c44 0 81.667 15.667 113 47s47 69 47 113v126c0 8.66699 3 16 9 22l64 64c10 10 21.667 12.333 35 7s20 -15 20 -29zM1312 1216l288 -288l-672 -672h-288v288zM1756 1084l-92.002 -91.998l-288 288l92 92c18.667 18.667 41.334 28 68.001 28s49.334 -9.33301 68.001 -28
l152 -152c18.667 -18.667 28 -41.334 28 -68.001s-9.33301 -49.334 -28 -68.001z" />
    <glyph glyph-name="share" unicode="&#xf045;" horiz-adv-x="1664" 
d="M1408 547l-0.00292969 -259.001c0 -79.333 -28.167 -147.166 -84.5 -203.499s-124.166 -84.5 -203.499 -84.5h-832c-79.333 0 -147.166 28.167 -203.499 84.5s-84.5 124.166 -84.5 203.499v832c0 79.333 28.167 147.166 84.5 203.499s124.166 84.5 203.499 84.5h255v0
c8.66699 0 16.167 -3.16699 22.5 -9.5s9.5 -13.833 9.5 -22.5c0 -18 -8.66699 -28.667 -26 -32c-51.333 -17.333 -95.666 -37.333 -132.999 -60c-6.66699 -2.66699 -12 -4 -16 -4h-112c-44 0 -81.667 -15.667 -113 -47s-47 -69 -47 -113v-832c0 -44 15.667 -81.667 47 -113
s69 -47 113 -47h832c44 0 81.667 15.667 113 47s47 69 47 113v214c0 12.667 6 22.334 18 29.001c18.667 8.66699 36.667 21 54 37c10.667 10.667 22.334 13.334 35.001 8.00098c14 -6 21 -15.667 21 -29zM1645 1043l-384 -384.001c-12 -12.667 -27 -19 -45 -19
c-8 0 -16.333 1.66699 -25 5c-26 11.333 -39 31 -39 59v192h-160c-215.333 0 -361.333 -43.667 -438 -131c-79.333 -91.333 -104 -249 -74 -473c2 -15.333 -4.66699 -26.666 -20 -33.999c-5.33301 -1.33301 -9.33301 -2 -12 -2c-10.667 0 -19.334 4.33301 -26.001 13
c-6.66699 9.33301 -13.667 19.666 -21 30.999s-20.5 34.166 -39.5 68.499s-35.5 67.5 -49.5 99.5s-26.833 70 -38.5 114s-17.5 84.667 -17.5 122c0 32.667 1.16699 63 3.5 91s7 58 14 90s16.333 61.333 28 88s27.334 53.834 47.001 81.501s42.5 52.334 68.5 74.001
s57.5 42.167 94.5 61.5s78.5 35.5 124.5 48.5s99.167 23.167 159.5 30.5s125.833 11 196.5 11h160v192c0 28 13 47.667 39 59c8.66699 3.33301 17 5 25 5c17.333 0 32.333 -6.33301 45 -19l384 -384c12.667 -12.667 19 -27.667 19 -45s-6.33301 -32.333 -19 -45z" />
    <glyph glyph-name="check" unicode="&#xf046;" horiz-adv-x="1664" 
d="M1408 606l-0.000976562 -317.998c0 -79.333 -28.167 -147.166 -84.5 -203.499s-124.166 -84.5 -203.499 -84.5h-832c-79.333 0 -147.166 28.167 -203.499 84.5s-84.5 124.166 -84.5 203.499v832c0 79.333 28.167 147.166 84.5 203.499s124.166 84.5 203.499 84.5h832
c42 0 81 -8.33301 117 -25c10 -4.66699 16 -12.334 18 -23.001c2 -11.333 -1 -21 -9 -29l-49 -49c-6.66699 -6.66699 -14.334 -10 -23.001 -10c-2 0 -5 0.666992 -9 2c-15.333 4 -30.333 6 -45 6h-832c-44 0 -81.667 -15.667 -113 -47s-47 -69 -47 -113v-832
c0 -44 15.667 -81.667 47 -113s69 -47 113 -47h832c44 0 81.667 15.667 113 47s47 69 47 113v254c0 8.66699 3 16 9 22l64 64c6.66699 6.66699 14.334 10 23.001 10c4 0 8 -1 12 -3c13.333 -5.33301 20 -15 20 -29zM1639 1095l-814 -814c-16 -16 -35 -24 -57 -24
s-41 8 -57 24l-430 430c-16 16 -24 35 -24 57s8 41 24 57l110 110c16 16 35 24 57 24s41 -8 57 -24l263 -263l647 647c16 16 35 24 57 24s41 -8 57 -24l110 -110c16 -16 24 -35 24 -57s-8 -41 -24 -57z" />
    <glyph glyph-name="move" unicode="&#xf047;" horiz-adv-x="1792" 
d="M1792 640c0 -17.333 -6.33301 -32.333 -19 -45l-256 -256c-12.667 -12.667 -27.667 -19 -45 -19s-32.333 6.33301 -45 19s-19 27.667 -19 45v128h-384v-384h128c17.333 0 32.333 -6.33301 45 -19s19 -27.667 19 -45s-6.33301 -32.333 -19 -45l-256 -256
c-12.667 -12.667 -27.667 -19 -45 -19s-32.333 6.33301 -45 19l-256 256c-12.667 12.667 -19 27.667 -19 45s6.33301 32.333 19 45s27.667 19 45 19h128v384h-384v-128c0 -17.333 -6.33301 -32.333 -19 -45s-27.667 -19 -45 -19s-32.333 6.33301 -45 19l-256 256
c-12.667 12.667 -19 27.667 -19 45s6.33301 32.333 19 45l256 256c12.667 12.667 27.667 19 45 19s32.333 -6.33301 45 -19s19 -27.667 19 -45v-128h384v384h-128c-17.333 0 -32.333 6.33301 -45 19s-19 27.667 -19 45s6.33301 32.333 19 45l256 256
c12.667 12.667 27.667 19 45 19s32.333 -6.33301 45 -19l256 -256c12.667 -12.667 19 -27.667 19 -45s-6.33301 -32.333 -19 -45s-27.667 -19 -45 -19h-128v-384h384v128c0 17.333 6.33301 32.333 19 45s27.667 19 45 19s32.333 -6.33301 45 -19l256 -256
c12.667 -12.667 19 -27.667 19 -45z" />
    <glyph glyph-name="step_backward" unicode="&#xf048;" horiz-adv-x="1024" 
d="M979 1395c12.667 12.667 23.334 17.001 32.001 13.001s13 -14.667 13 -32v-1472c0 -17.333 -4.33301 -28 -13 -32s-19.334 0.333008 -32.001 13l-710 710c-6 6 -10.333 12.333 -13 19v-678c0 -17.333 -6.33301 -32.333 -19 -45s-27.667 -19 -45 -19h-128
c-17.333 0 -32.333 6.33301 -45 19s-19 27.667 -19 45v1408c-0 17.333 6.33301 32.333 19 45s27.667 19 45 19h128c17.333 0 32.333 -6.33301 45 -19s19 -27.667 19 -45v-678c2.66699 7.33301 7 13.666 13 18.999z" />
    <glyph glyph-name="fast_backward" unicode="&#xf049;" horiz-adv-x="1792" 
d="M1747 1395c12.667 12.667 23.334 17.002 32.001 13.002s13 -14.667 13 -32v-1472c0 -17.333 -4.33301 -28 -13 -32s-19.334 0.333008 -32.001 13l-710 710c-6 6 -10.333 12.333 -13 19v-710c0 -17.333 -4.33301 -28 -13 -32s-19.334 0.333008 -32.001 13l-710 710
c-6 6 -10.333 12.333 -13 19v-678c0 -17.333 -6.33301 -32.333 -19 -45s-27.667 -19 -45 -19h-128c-17.333 0 -32.333 6.33301 -45 19s-19 27.667 -19 45v1408c0 17.333 6.33301 32.333 19 45s27.667 19 45 19h128c17.333 0 32.333 -6.33301 45 -19s19 -27.667 19 -45v-678
c2.66699 7.33301 7 13.666 13 18.999l710 710c12.667 12.667 23.334 17 32.001 13s13 -14.667 13 -32v-710c2.66699 7.33301 7 13.666 13 18.999z" />
    <glyph glyph-name="backward" unicode="&#xf04a;" horiz-adv-x="1664" 
d="M1619 1395c12.667 12.667 23.334 17.001 32.001 13.001s13 -14.667 13 -32v-1472c0 -17.333 -4.33301 -28 -13 -32s-19.334 0.333008 -32.001 13l-710 710c-5.33301 6 -9.66602 12.333 -12.999 19v-710c0 -17.333 -4.33301 -28 -13 -32s-19.334 0.333008 -32.001 13
l-710 710c-12.667 12.667 -19 27.667 -19 45s6.33301 32.333 19 45l710 710c12.667 12.667 23.334 17 32.001 13s13 -14.667 13 -32v-710c3.33301 7.33301 7.66602 13.666 12.999 18.999z" />
    <glyph glyph-name="play" unicode="&#xf04b;" horiz-adv-x="1408" 
d="M1384 609l-1328 -738c-15.333 -8.66699 -28.5 -9.66699 -39.5 -3s-16.5 18.667 -16.5 36v1472c0 17.333 5.5 29.333 16.5 36s24.167 5.66699 39.5 -3l1328 -738c15.333 -8.66699 23 -19 23 -31s-7.66699 -22.333 -23 -31z" />
    <glyph glyph-name="pause" unicode="&#xf04c;" 
d="M1536 1344v-1408c0 -17.333 -6.33301 -32.333 -19 -45s-27.667 -19 -45 -19h-512c-17.333 0 -32.333 6.33301 -45 19s-19 27.667 -19 45v1408c0 17.333 6.33301 32.333 19 45s27.667 19 45 19h512c17.333 0 32.333 -6.33301 45 -19s19 -27.667 19 -45zM640 1344v-1408
c0 -17.333 -6.33301 -32.333 -19 -45s-27.667 -19 -45 -19h-512c-17.333 0 -32.333 6.33301 -45 19s-19 27.667 -19 45v1408c-0 17.333 6.33301 32.333 19 45s27.667 19 45 19h512c17.333 0 32.333 -6.33301 45 -19s19 -27.667 19 -45z" />
    <glyph glyph-name="stop" unicode="&#xf04d;" 
d="M1536 1344v-1408c0 -17.333 -6.33301 -32.333 -19 -45s-27.667 -19 -45 -19h-1408c-17.333 0 -32.333 6.33301 -45 19s-19 27.667 -19 45v1408c-0 17.333 6.33301 32.333 19 45s27.667 19 45 19h1408c17.333 0 32.333 -6.33301 45 -19s19 -27.667 19 -45z" />
    <glyph glyph-name="forward" unicode="&#xf04e;" horiz-adv-x="1664" 
d="M45 -115c-12.667 -12.667 -23.334 -17.001 -32.001 -13.001s-13 14.667 -13 32v1472c0 17.333 4.33301 28 13 32s19.334 -0.333008 32.001 -13l710 -710c5.33301 -5.33301 9.66602 -11.666 12.999 -18.999v710c0 17.333 4.33301 28 13 32s19.334 -0.333008 32.001 -13
l710 -710c12.667 -12.667 19 -27.667 19 -45s-6.33301 -32.333 -19 -45l-710 -710c-12.667 -12.667 -23.334 -17 -32.001 -13s-13 14.667 -13 32v710c-3.33301 -6.66699 -7.66602 -13 -12.999 -19z" />
    <glyph glyph-name="fast_forward" unicode="&#xf050;" horiz-adv-x="1792" 
d="M45 -115c-12.667 -12.667 -23.334 -17.002 -32.001 -13.002s-13 14.667 -13 32v1472c0 17.333 4.33301 28 13 32s19.334 -0.333008 32.001 -13l710 -710c5.33301 -5.33301 9.66602 -11.666 12.999 -18.999v710c0 17.333 4.33301 28 13 32s19.334 -0.333008 32.001 -13
l710 -710c5.33301 -5.33301 9.66602 -11.666 12.999 -18.999v678c0 17.333 6.33301 32.333 19 45s27.667 19 45 19h128c17.333 0 32.333 -6.33301 45 -19s19 -27.667 19 -45v-1408c0 -17.333 -6.33301 -32.333 -19 -45s-27.667 -19 -45 -19h-128
c-17.333 0 -32.333 6.33301 -45 19s-19 27.667 -19 45v678c-3.33301 -6.66699 -7.66602 -13 -12.999 -19l-710 -710c-12.667 -12.667 -23.334 -17 -32.001 -13s-13 14.667 -13 32v710c-3.33301 -6.66699 -7.66602 -13 -12.999 -19z" />
    <glyph glyph-name="step_forward" unicode="&#xf051;" horiz-adv-x="1024" 
d="M45 -115c-12.667 -12.667 -23.334 -17.001 -32.001 -13.001s-13 14.667 -13 32v1472c0 17.333 4.33301 28 13 32s19.334 -0.333008 32.001 -13l710 -710c5.33301 -5.33301 9.66602 -11.666 12.999 -18.999v678c0 17.333 6.33301 32.333 19 45s27.667 19 45 19h128
c17.333 0 32.333 -6.33301 45 -19s19 -27.667 19 -45v-1408c0 -17.333 -6.33301 -32.333 -19 -45s-27.667 -19 -45 -19h-128c-17.333 0 -32.333 6.33301 -45 19s-19 27.667 -19 45v678c-3.33301 -6.66699 -7.66602 -13 -12.999 -19z" />
    <glyph glyph-name="eject" unicode="&#xf052;" horiz-adv-x="1538" 
d="M14 557l710 710c12.667 12.667 27.667 19 45 19s32.333 -6.33301 45 -19l710 -710c12.667 -12.667 17 -23.334 13 -32.001s-14.667 -13 -32 -13h-1472c-17.333 0 -28 4.33301 -32 13s0.333008 19.334 13 32.001zM1473 0h-1408c-17.333 -0 -32.333 6.33301 -45 19
s-19 27.667 -19 45v256c0 17.333 6.33301 32.333 19 45s27.667 19 45 19h1408c17.333 0 32.333 -6.33301 45 -19s19 -27.667 19 -45v-256c0 -17.333 -6.33301 -32.333 -19 -45s-27.667 -19 -45 -19z" />
    <glyph glyph-name="chevron_left" unicode="&#xf053;" horiz-adv-x="1152" 
d="M742 -37l-652 650.999c-24.667 24.667 -37 54.834 -37 90.501s12.333 65.834 37 90.501l652 651c24.667 24.667 54.834 37 90.501 37s65.834 -12.333 90.501 -37l75 -75c24.667 -24.667 37 -54.834 37 -90.501s-12.333 -65.834 -37 -90.501l-486 -486l486 -485
c24.667 -25.333 37 -55.666 37 -90.999s-12.333 -65.333 -37 -90l-75 -75c-24.667 -24.667 -54.834 -37 -90.501 -37s-65.834 12.333 -90.501 37z" />
    <glyph glyph-name="chevron_right" unicode="&#xf054;" horiz-adv-x="1152" 
d="M1099 704c0 -34.667 -12.333 -65 -37 -91l-652 -651c-24.667 -24.667 -54.667 -37 -90 -37s-65.333 12.333 -90 37l-76 75c-24.667 26 -37 56.333 -37 91c0 35.333 12.333 65.333 37 90l486 486l-486 485c-24.667 26 -37 56.333 -37 91c0 35.333 12.333 65.333 37 90
l76 75c24 25.333 54 38 90 38s66 -12.667 90 -38l652 -651c24.667 -24.667 37 -54.667 37 -90z" />
    <glyph glyph-name="plus_sign" unicode="&#xf055;" 
d="M1216 576v128c0 17.333 -6.33301 32.333 -19 45s-27.667 19 -45 19h-256v256c0 17.333 -6.33301 32.333 -19 45s-27.667 19 -45 19h-128c-17.333 0 -32.333 -6.33301 -45 -19s-19 -27.667 -19 -45v-256h-256c-17.333 0 -32.333 -6.33301 -45 -19s-19 -27.667 -19 -45
v-128c0 -17.333 6.33301 -32.333 19 -45s27.667 -19 45 -19h256v-256c0 -17.333 6.33301 -32.333 19 -45s27.667 -19 45 -19h128c17.333 0 32.333 6.33301 45 19s19 27.667 19 45v256h256c17.333 0 32.333 6.33301 45 19s19 27.667 19 45zM1536 640
c0 -139.333 -34.333 -267.833 -103 -385.5s-161.834 -210.834 -279.501 -279.501s-246.167 -103 -385.5 -103s-267.833 34.333 -385.5 103s-210.834 161.834 -279.501 279.501s-103 246.167 -103 385.5s34.333 267.833 103 385.5s161.834 210.834 279.501 279.501
s246.167 103 385.5 103s267.833 -34.333 385.5 -103s210.834 -161.834 279.501 -279.501s103 -246.167 103 -385.5z" />
    <glyph glyph-name="minus_sign" unicode="&#xf056;" 
d="M1216 576v128c0 17.333 -6.33301 32.333 -19 45s-27.667 19 -45 19h-768c-17.333 0 -32.333 -6.33301 -45 -19s-19 -27.667 -19 -45v-128c0 -17.333 6.33301 -32.333 19 -45s27.667 -19 45 -19h768c17.333 0 32.333 6.33301 45 19s19 27.667 19 45zM1536 640
c0 -139.333 -34.333 -267.833 -103 -385.5s-161.834 -210.834 -279.501 -279.501s-246.167 -103 -385.5 -103s-267.833 34.333 -385.5 103s-210.834 161.834 -279.501 279.501s-103 246.167 -103 385.5s34.333 267.833 103 385.5s161.834 210.834 279.501 279.501
s246.167 103 385.5 103s267.833 -34.333 385.5 -103s210.834 -161.834 279.501 -279.501s103 -246.167 103 -385.5z" />
    <glyph glyph-name="remove_sign" unicode="&#xf057;" 
d="M1149 414c0 17.333 -6.33301 32.333 -19 45l-181 181l181 181c12.667 12.667 19 27.667 19 45c0 18 -6.33301 33.333 -19 46l-90 90c-12.667 12.667 -28 19 -46 19c-17.333 0 -32.333 -6.33301 -45 -19l-181 -181l-181 181c-12.667 12.667 -27.667 19 -45 19
c-18 0 -33.333 -6.33301 -46 -19l-90 -90c-12.667 -12.667 -19 -28 -19 -46c0 -17.333 6.33301 -32.333 19 -45l181 -181l-181 -181c-12.667 -12.667 -19 -27.667 -19 -45c0 -18 6.33301 -33.333 19 -46l90 -90c12.667 -12.667 28 -19 46 -19c17.333 0 32.333 6.33301 45 19
l181 181l181 -181c12.667 -12.667 27.667 -19 45 -19c18 0 33.333 6.33301 46 19l90 90c12.667 12.667 19 28 19 46zM1536 640c0 -139.333 -34.333 -267.833 -103 -385.5s-161.834 -210.834 -279.501 -279.501s-246.167 -103 -385.5 -103s-267.833 34.333 -385.5 103
s-210.834 161.834 -279.501 279.501s-103 246.167 -103 385.5s34.333 267.833 103 385.5s161.834 210.834 279.501 279.501s246.167 103 385.5 103s267.833 -34.333 385.5 -103s210.834 -161.834 279.501 -279.501s103 -246.167 103 -385.5z" />
    <glyph glyph-name="ok_sign" unicode="&#xf058;" 
d="M1284 802c0 18.667 -6 34 -18 46l-91 90c-12.667 12.667 -27.667 19 -45 19s-32.333 -6.33301 -45 -19l-408 -407l-226 226c-12.667 12.667 -27.667 19 -45 19s-32.333 -6.33301 -45 -19l-91 -90c-12 -12 -18 -27.333 -18 -46c0 -18 6 -33 18 -45l362 -362
c12.667 -12.667 27.667 -19 45 -19c18 0 33.333 6.33301 46 19l543 543c12 12 18 27 18 45zM1536 640c0 -139.333 -34.333 -267.833 -103 -385.5s-161.834 -210.834 -279.501 -279.501s-246.167 -103 -385.5 -103s-267.833 34.333 -385.5 103
s-210.834 161.834 -279.501 279.501s-103 246.167 -103 385.5s34.333 267.833 103 385.5s161.834 210.834 279.501 279.501s246.167 103 385.5 103s267.833 -34.333 385.5 -103s210.834 -161.834 279.501 -279.501s103 -246.167 103 -385.5z" />
    <glyph glyph-name="question_sign" unicode="&#xf059;" 
d="M896 160v192c0 9.33301 -3 17 -9 23s-13.667 9 -23 9h-192c-9.33301 0 -17 -3 -23 -9s-9 -13.667 -9 -23v-192c0 -9.33301 3 -17 9 -23s13.667 -9 23 -9h192c9.33301 0 17 3 23 9s9 13.667 9 23zM1152 832c0 58.667 -18.4971 112.998 -55.4971 162.998
s-83.167 88.667 -138.5 116s-112 41 -170 41c-162 0 -285.667 -71 -371 -213c-10 -16 -7.33301 -30 8 -42l132 -100c4.66699 -4 11 -6 19 -6c10.667 0 19 4 25 12c35.333 45.333 64 76 86 92c22.667 16 51.334 24 86.001 24c32 0 60.5 -8.66699 85.5 -26s37.5 -37 37.5 -59
c0 -25.333 -6.66699 -45.666 -20 -60.999s-36 -30.333 -68 -45c-42 -18.667 -80.5 -47.5 -115.5 -86.5s-52.5 -80.833 -52.5 -125.5v-36c0 -9.33301 3 -17 9 -23s13.667 -9 23 -9h192c9.33301 0 17 3 23 9s9 13.667 9 23c0 12.667 7.16699 29.167 21.5 49.5
s32.5 36.833 54.5 49.5c21.333 12 37.666 21.5 48.999 28.5s26.666 18.667 45.999 35s34.166 32.333 44.499 48s19.666 35.834 27.999 60.501s12.5 51.667 12.5 81zM1536 639.998c0 -139.333 -34.333 -267.833 -103 -385.5s-161.834 -210.834 -279.501 -279.501
s-246.167 -103 -385.5 -103s-267.833 34.333 -385.5 103s-210.834 161.834 -279.501 279.501s-103 246.167 -103 385.5s34.333 267.833 103 385.5s161.834 210.834 279.501 279.501s246.167 103 385.5 103s267.833 -34.333 385.5 -103s210.834 -161.834 279.501 -279.501
s103 -246.167 103 -385.5z" />
    <glyph glyph-name="info_sign" unicode="&#xf05a;" 
d="M1024 160v160c0 9.33301 -3 17 -9 23s-13.667 9 -23 9h-96v512c0 9.33301 -3 17 -9 23s-13.667 9 -23 9h-320c-9.33301 0 -17 -3 -23 -9s-9 -13.667 -9 -23v-160c0 -9.33301 3 -17 9 -23s13.667 -9 23 -9h96v-320h-96c-9.33301 0 -17 -3 -23 -9s-9 -13.667 -9 -23v-160
c0 -9.33301 3 -17 9 -23s13.667 -9 23 -9h448c9.33301 0 17 3 23 9s9 13.667 9 23zM896 1056v160c0 9.33301 -3 17 -9 23s-13.667 9 -23 9h-192c-9.33301 0 -17 -3 -23 -9s-9 -13.667 -9 -23v-160c0 -9.33301 3 -17 9 -23s13.667 -9 23 -9h192c9.33301 0 17 3 23 9
s9 13.667 9 23zM1536 640c0 -139.333 -34.333 -267.833 -103 -385.5s-161.834 -210.834 -279.501 -279.501s-246.167 -103 -385.5 -103s-267.833 34.333 -385.5 103s-210.834 161.834 -279.501 279.501s-103 246.167 -103 385.5s34.333 267.833 103 385.5
s161.834 210.834 279.501 279.501s246.167 103 385.5 103s267.833 -34.333 385.5 -103s210.834 -161.834 279.501 -279.501s103 -246.167 103 -385.5z" />
    <glyph glyph-name="screenshot" unicode="&#xf05b;" 
d="M1197 512h-109c-17.333 0 -32.333 6.33301 -45 19s-19 27.667 -19 45v128c0 17.333 6.33301 32.333 19 45s27.667 19 45 19h109c-21.333 72 -58.833 134.833 -112.5 188.5s-116.5 91.167 -188.5 112.5v-109c0 -17.333 -6.33301 -32.333 -19 -45s-27.667 -19 -45 -19h-128
c-17.333 0 -32.333 6.33301 -45 19s-19 27.667 -19 45v109c-72 -21.333 -134.833 -58.833 -188.5 -112.5s-91.167 -116.5 -112.5 -188.5h109c17.333 0 32.333 -6.33301 45 -19s19 -27.667 19 -45v-128c0 -17.333 -6.33301 -32.333 -19 -45s-27.667 -19 -45 -19h-109
c21.333 -72 58.833 -134.833 112.5 -188.5s116.5 -91.167 188.5 -112.5v109c0 17.333 6.33301 32.333 19 45s27.667 19 45 19h128c17.333 0 32.333 -6.33301 45 -19s19 -27.667 19 -45v-109c72 21.333 134.833 58.833 188.5 112.5s91.167 116.5 112.5 188.5zM1536 704v-128
c0 -17.333 -6.33301 -32.333 -19 -45s-27.667 -19 -45 -19h-143c-24.667 -107.333 -76.167 -200.166 -154.5 -278.499s-171.166 -129.833 -278.499 -154.5v-143c0 -17.333 -6.33301 -32.333 -19 -45s-27.667 -19 -45 -19h-128c-17.333 0 -32.333 6.33301 -45 19
s-19 27.667 -19 45v143c-107.333 24.667 -200.166 76.167 -278.499 154.5s-129.833 171.166 -154.5 278.499h-143c-17.333 0 -32.333 6.33301 -45 19s-19 27.667 -19 45v128c0 17.333 6.33301 32.333 19 45s27.667 19 45 19h143
c24.667 107.333 76.167 200.166 154.5 278.499s171.166 129.833 278.499 154.5v143c0 17.333 6.33301 32.333 19 45s27.667 19 45 19h128c17.333 0 32.333 -6.33301 45 -19s19 -27.667 19 -45v-143c107.333 -24.667 200.166 -76.167 278.499 -154.5
s129.833 -171.166 154.5 -278.499h143c17.333 0 32.333 -6.33301 45 -19s19 -27.667 19 -45z" />
    <glyph glyph-name="remove_circle" unicode="&#xf05c;" 
d="M1097 457l-146 -146c-6.66699 -6.66699 -14.334 -10 -23.001 -10s-16.334 3.33301 -23.001 10l-137 137l-137 -137c-6.66699 -6.66699 -14.334 -10 -23.001 -10s-16.334 3.33301 -23.001 10l-146 146c-6.66699 6.66699 -10 14.334 -10 23.001s3.33301 16.334 10 23.001
l137 137l-137 137c-6.66699 6.66699 -10 14.334 -10 23.001s3.33301 16.334 10 23.001l146 146c6.66699 6.66699 14.334 10 23.001 10s16.334 -3.33301 23.001 -10l137 -137l137 137c6.66699 6.66699 14.334 10 23.001 10s16.334 -3.33301 23.001 -10l146 -146
c6.66699 -6.66699 10 -14.334 10 -23.001s-3.33301 -16.334 -10 -23.001l-137 -137l137 -137c6.66699 -6.66699 10 -14.334 10 -23.001s-3.33301 -16.334 -10 -23.001zM1312 640c0 98.667 -24.333 189.667 -73 273s-114.667 149.333 -198 198s-174.333 73 -273 73
s-189.667 -24.333 -273 -73s-149.333 -114.667 -198 -198s-73 -174.333 -73 -273s24.333 -189.667 73 -273s114.667 -149.333 198 -198s174.333 -73 273 -73s189.667 24.333 273 73s149.333 114.667 198 198s73 174.333 73 273zM1536 640
c0 -139.333 -34.333 -267.833 -103 -385.5s-161.834 -210.834 -279.501 -279.501s-246.167 -103 -385.5 -103s-267.833 34.333 -385.5 103s-210.834 161.834 -279.501 279.501s-103 246.167 -103 385.5s34.333 267.833 103 385.5s161.834 210.834 279.501 279.501
s246.167 103 385.5 103s267.833 -34.333 385.5 -103s210.834 -161.834 279.501 -279.501s103 -246.167 103 -385.5z" />
    <glyph glyph-name="ok_circle" unicode="&#xf05d;" 
d="M1171 723l-422 -422c-12.667 -12.667 -27.667 -19 -45 -19s-32.333 6.33301 -45 19l-294 294c-12.667 12.667 -19 27.667 -19 45s6.33301 32.333 19 45l102 102c12.667 12.667 27.667 19 45 19s32.333 -6.33301 45 -19l147 -147l275 275c12.667 12.667 27.667 19 45 19
s32.333 -6.33301 45 -19l102 -102c12.667 -12.667 19 -27.667 19 -45s-6.33301 -32.333 -19 -45zM1312 640c0 98.667 -24.333 189.667 -73 273s-114.667 149.333 -198 198s-174.333 73 -273 73s-189.667 -24.333 -273 -73s-149.333 -114.667 -198 -198
s-73 -174.333 -73 -273s24.333 -189.667 73 -273s114.667 -149.333 198 -198s174.333 -73 273 -73s189.667 24.333 273 73s149.333 114.667 198 198s73 174.333 73 273zM1536 640c0 -139.333 -34.333 -267.833 -103 -385.5s-161.834 -210.834 -279.501 -279.501
s-246.167 -103 -385.5 -103s-267.833 34.333 -385.5 103s-210.834 161.834 -279.501 279.501s-103 246.167 -103 385.5s34.333 267.833 103 385.5s161.834 210.834 279.501 279.501s246.167 103 385.5 103s267.833 -34.333 385.5 -103s210.834 -161.834 279.501 -279.501
s103 -246.167 103 -385.5z" />
    <glyph glyph-name="ban_circle" unicode="&#xf05e;" 
d="M1312 643c0 107.333 -29.001 205.666 -87.001 294.999l-754 -753c91.333 -59.333 190.333 -89 297 -89c74 0 144.5 14.5 211.5 43.5s124.833 67.833 173.5 116.5s87.334 106.834 116.001 174.501s43 138.5 43 212.5zM312.999 344l755 754c-90 60.667 -190 91 -300 91
c-98.667 0 -189.667 -24.333 -273 -73s-149.333 -115 -198 -199s-73 -175.333 -73 -274c0 -108 29.667 -207.667 89 -299zM1536 643c0 -104.667 -20.333 -204.667 -61 -300s-95.167 -177.333 -163.5 -246s-150 -123.334 -245 -164.001s-194.5 -61 -298.5 -61
s-203.5 20.333 -298.5 61s-176.667 95.334 -245 164.001s-122.833 150.667 -163.5 246s-61 195.333 -61 300s20.333 204.5 61 299.5s95.167 176.833 163.5 245.5s150 123.334 245 164.001s194.5 61 298.5 61s203.5 -20.333 298.5 -61s176.667 -95.334 245 -164.001
s122.833 -150.5 163.5 -245.5s61 -194.833 61 -299.5z" />
    <glyph glyph-name="arrow_left" unicode="&#xf060;" 
d="M1536 640l0.000976562 -128.002c0 -35.333 -10.833 -65.5 -32.5 -90.5s-49.834 -37.5 -84.501 -37.5h-704l293 -294c25.333 -24 38 -54 38 -90s-12.667 -66 -38 -90l-75 -76c-24.667 -24.667 -54.667 -37 -90 -37c-34.667 0 -65 12.333 -91 37l-651 652
c-24.667 24.667 -37 54.667 -37 90c0 34.667 12.333 65 37 91l651 650c25.333 25.333 55.666 38 90.999 38c34.667 0 64.667 -12.667 90 -38l75 -74c25.333 -25.333 38 -55.666 38 -90.999s-12.667 -65.666 -38 -90.999l-293 -293h704c34.667 0 62.834 -12.5 84.501 -37.5
s32.5 -55.167 32.5 -90.5z" />
    <glyph glyph-name="arrow_right" unicode="&#xf061;" 
d="M1472 576c0 -36 -12.332 -66.3311 -36.999 -90.998l-651 -651c-26 -24.667 -56.333 -37 -91 -37c-34 0 -64 12.333 -90 37l-75 75c-25.333 25.333 -38 55.666 -38 90.999s12.667 65.666 38 90.999l293 293h-704c-34.667 0 -62.834 12.5 -84.501 37.5
s-32.5 55.167 -32.5 90.5v128c-0 35.333 10.833 65.5 32.5 90.5s49.834 37.5 84.501 37.5h704l-293 294c-25.333 24 -38 54 -38 90s12.667 66 38 90l75 75c25.333 25.333 55.333 38 90 38c35.333 0 65.666 -12.667 90.999 -38l651 -651c24.667 -23.333 37 -53.333 37 -90z
" />
    <glyph glyph-name="arrow_up" unicode="&#xf062;" horiz-adv-x="1664" 
d="M1611 565c0 -34 -12.334 -63.999 -37.001 -89.999l-75 -75c-25.333 -25.333 -55.666 -38 -90.999 -38c-36 0 -66 12.667 -90 38l-294 293v-704c0 -34.667 -12.5 -62.834 -37.5 -84.501s-55.167 -32.5 -90.5 -32.5h-128c-35.333 0 -65.5 10.833 -90.5 32.5
s-37.5 49.834 -37.5 84.501v704l-294 -293c-24 -25.333 -54 -38 -90 -38s-66 12.667 -90 38l-75 75c-25.333 25.333 -38 55.333 -38 90c0 35.333 12.667 65.666 38 90.999l651 651c23.333 24.667 53.333 37 90 37c36 0 66.333 -12.333 91 -37l651 -651
c24.667 -26 37 -56.333 37 -91z" />
    <glyph glyph-name="arrow_down" unicode="&#xf063;" horiz-adv-x="1664" 
d="M1611 704c0 -35.333 -12.333 -65.332 -37 -89.999l-651 -652c-26 -24.667 -56.333 -37 -91 -37c-35.333 0 -65.333 12.333 -90 37l-651 652c-25.333 24 -38 54 -38 90c0 35.333 12.667 65.666 38 90.999l74 75c26 24.667 56.333 37 91 37c35.333 0 65.333 -12.333 90 -37
l294 -294v704c0 34.667 12.667 64.667 38 90s55.333 38 90 38h128c34.667 0 64.667 -12.667 90 -38s38 -55.333 38 -90v-704l294 294c24.667 24.667 54.667 37 90 37c34.667 0 65 -12.333 91 -37l75 -75c24.667 -26 37 -56.333 37 -91z" />
    <glyph glyph-name="share_alt" unicode="&#xf064;" horiz-adv-x="1792" 
d="M1792 896c0 -17.333 -6.33008 -32.334 -18.9971 -45.001l-512 -512c-12.667 -12.667 -27.667 -19 -45 -19s-32.333 6.33301 -45 19s-19 27.667 -19 45v256h-224c-65.333 0 -123.833 -2 -175.5 -6s-103 -11.167 -154 -21.5s-95.333 -24.5 -133 -42.5
s-72.834 -41.167 -105.501 -69.5s-59.334 -62 -80.001 -101s-36.834 -85.167 -48.501 -138.5s-17.5 -113.666 -17.5 -180.999c0 -36.667 1.66699 -77.667 5 -123c0 -4 0.833008 -11.833 2.5 -23.5s2.5 -20.5 2.5 -26.5c0 -10 -2.83301 -18.333 -8.5 -25s-13.5 -10 -23.5 -10
c-10.667 0 -20 5.66699 -28 17c-4.66699 6 -9 13.333 -13 22l-13.5 30l-10.5 24c-84.667 190 -127 340.333 -127 451c0 132.667 17.667 243.667 53 333c108 268.667 399.667 403 875 403h224v256c0 17.333 6.33301 32.333 19 45s27.667 19 45 19s32.333 -6.33301 45 -19
l512 -512c12.667 -12.667 19 -27.667 19 -45z" />
    <glyph glyph-name="resize_full" unicode="&#xf065;" 
d="M755 480c0 -8.66699 -3.33496 -16.332 -10.002 -22.999l-332 -332l144 -144c12.667 -12.667 19 -27.667 19 -45s-6.33301 -32.333 -19 -45s-27.667 -19 -45 -19h-448c-17.333 0 -32.333 6.33301 -45 19s-19 27.667 -19 45v448c0 17.333 6.33301 32.333 19 45
s27.667 19 45 19s32.333 -6.33301 45 -19l144 -144l332 332c6.66699 6.66699 14.334 10 23.001 10s16.334 -3.33301 23.001 -10l114 -114c6.66699 -6.66699 10 -14.334 10 -23.001zM1536 1344l0.00195312 -448.002c0 -17.333 -6.33301 -32.333 -19 -45s-27.667 -19 -45 -19
s-32.333 6.33301 -45 19l-144 144l-332 -332c-6.66699 -6.66699 -14.334 -10 -23.001 -10s-16.334 3.33301 -23.001 10l-114 114c-6.66699 6.66699 -10 14.334 -10 23.001s3.33301 16.334 10 23.001l332 332l-144 144c-12.667 12.667 -19 27.667 -19 45
s6.33301 32.333 19 45s27.667 19 45 19h448c17.333 0 32.333 -6.33301 45 -19s19 -27.667 19 -45z" />
    <glyph glyph-name="resize_small" unicode="&#xf066;" 
d="M768 576l0.00195312 -448.002c0 -17.333 -6.33301 -32.333 -19 -45s-27.667 -19 -45 -19s-32.333 6.33301 -45 19l-144 144l-332 -332c-6.66699 -6.66699 -14.334 -10 -23.001 -10s-16.334 3.33301 -23.001 10l-114 114c-6.66699 6.66699 -10 14.334 -10 23.001
s3.33301 16.334 10 23.001l332 332l-144 144c-12.667 12.667 -19 27.667 -19 45s6.33301 32.333 19 45s27.667 19 45 19h448c17.333 0 32.333 -6.33301 45 -19s19 -27.667 19 -45zM1523 1248c0 -8.66699 -3.33496 -16.332 -10.002 -22.999l-332 -332l144 -144
c12.667 -12.667 19 -27.667 19 -45s-6.33301 -32.333 -19 -45s-27.667 -19 -45 -19h-448c-17.333 0 -32.333 6.33301 -45 19s-19 27.667 -19 45v448c0 17.333 6.33301 32.333 19 45s27.667 19 45 19s32.333 -6.33301 45 -19l144 -144l332 332
c6.66699 6.66699 14.334 10 23.001 10s16.334 -3.33301 23.001 -10l114 -114c6.66699 -6.66699 10 -14.334 10 -23.001z" />
    </font>
</defs>
</svg>
